<?xml version="1.0" encoding="UTF-8" standalone="no"?>
<!DOCTYPE svg PUBLIC "-//W3C//DTD SVG 1.1//EN" "http://www.w3.org/Graphics/SVG/1.1/DTD/svg11.dtd">
<svg width="100%" height="100%" viewBox="0 0 693 254" version="1.1" xmlns="http://www.w3.org/2000/svg" xmlns:xlink="http://www.w3.org/1999/xlink" xml:space="preserve" xmlns:serif="http://www.serif.com/" style="fill-rule:evenodd;clip-rule:evenodd;stroke-linejoin:round;stroke-miterlimit:2;">
    <g transform="matrix(1,0,0,1,-1778.45,-6895.06)">
        <g transform="matrix(4.16667,0,0,4.16667,1834.14,7119.32)">
            <path d="M0,5.292C-0.309,5.796 -0.746,6.188 -1.311,6.467C-1.876,6.745 -2.524,6.885 -3.255,6.885C-3.986,6.885 -4.634,6.745 -5.199,6.467C-5.765,6.188 -6.204,5.796 -6.517,5.292C-6.83,4.787 -6.986,4.206 -6.986,3.55L-6.986,-1.593L-5.176,-1.593L-5.176,3.471C-5.176,4.044 -5,4.506 -4.646,4.856C-4.291,5.206 -3.824,5.382 -3.243,5.382C-2.679,5.382 -2.221,5.206 -1.871,4.856C-1.52,4.506 -1.344,4.044 -1.344,3.471L-1.344,-1.593L0.464,-1.593L0.464,3.55C0.464,4.206 0.309,4.787 0,5.292" style="fill:white;fill-rule:nonzero;"/>
        </g>
        <g transform="matrix(4.16667,0,0,4.16667,1866.36,7132.73)">
            <path d="M0,-1.256C0.263,-1.478 0.395,-1.767 0.395,-2.12C0.395,-2.483 0.279,-2.772 0.046,-2.991C-0.189,-3.209 -0.501,-3.319 -0.893,-3.319L-2.509,-3.319L-2.509,-0.922L-1.051,-0.922C-0.614,-0.922 -0.264,-1.033 0,-1.256M-0.702,-4.811C-0.113,-4.811 0.405,-4.699 0.854,-4.478C1.302,-4.255 1.65,-3.941 1.899,-3.533C2.147,-3.126 2.271,-2.655 2.271,-2.12C2.271,-1.6 2.138,-1.137 1.872,-0.73C1.604,-0.322 1.232,-0.014 0.757,0.197L2.939,3.555L0.813,3.555L-1.028,0.581L-2.509,0.581L-2.509,3.555L-4.33,3.555L-4.33,-4.811L-0.702,-4.811Z" style="fill:white;fill-rule:nonzero;"/>
        </g>
        <g transform="matrix(4.16667,0,0,4.16667,1906.65,7120.13)">
            <path d="M0,4.793C0.223,4.605 0.334,4.356 0.334,4.046C0.334,3.746 0.223,3.5 0,3.313C-0.221,3.123 -0.509,3.029 -0.864,3.029L-2.685,3.029L-2.685,5.075L-0.875,5.075C-0.514,5.075 -0.221,4.981 0,4.793M-0.428,1.282C-0.229,1.113 -0.13,0.893 -0.13,0.621C-0.13,0.351 -0.227,0.13 -0.423,-0.04C-0.619,-0.209 -0.879,-0.295 -1.203,-0.295L-2.685,-0.295L-2.685,1.537L-1.227,1.537C-0.895,1.537 -0.629,1.452 -0.428,1.282M1.797,2.877C2.074,3.227 2.211,3.64 2.211,4.114C2.211,4.597 2.094,5.024 1.86,5.397C1.627,5.771 1.297,6.061 0.872,6.268C0.445,6.475 -0.046,6.579 -0.604,6.579L-4.504,6.579L-4.504,-1.786L-0.615,-1.786C-0.156,-1.786 0.253,-1.693 0.611,-1.509C0.969,-1.324 1.245,-1.064 1.442,-0.729C1.637,-0.394 1.735,-0.007 1.735,0.43C1.735,0.791 1.643,1.117 1.458,1.407C1.273,1.697 1.008,1.937 0.662,2.125C1.144,2.275 1.523,2.526 1.797,2.877" style="fill:white;fill-rule:nonzero;"/>
        </g>
        <g transform="matrix(4.16667,0,0,4.16667,1945.34,7125.21)">
            <path d="M0,2.351L-1.255,-0.758L-2.521,2.351L0,2.351ZM-5.641,5.358L-2.102,-3.007L-0.418,-3.007L3.119,5.358L1.176,5.358L0.564,3.842L-3.097,3.842L-3.708,5.358L-5.641,5.358Z" style="fill:white;fill-rule:nonzero;"/>
        </g>
        <g transform="matrix(4.16667,0,0,4.16667,1974.26,7134.78)">
            <path d="M0,-2.239L0.034,3.063L-1.786,3.063L-1.786,-5.302L-0.655,-5.302L4.454,-0.001L4.408,-5.302L6.217,-5.302L6.217,3.063L5.098,3.063L0,-2.239Z" style="fill:white;fill-rule:nonzero;"/>
        </g>
        <g transform="matrix(4.16667,0,0,4.16667,2030.68,7147.54)">
            <path d="M0,-8.365L1.82,-8.365L1.82,-1.504L5.437,-1.504L5.437,0L0,0L0,-8.365Z" style="fill:white;fill-rule:nonzero;"/>
        </g>
        <g transform="matrix(4.16667,0,0,4.16667,2082.07,7125.21)">
            <path d="M0,2.351L-1.254,-0.758L-2.521,2.351L0,2.351ZM-5.641,5.358L-2.103,-3.007L-0.418,-3.007L3.12,5.358L1.176,5.358L0.565,3.842L-3.097,3.842L-3.707,5.358L-5.641,5.358Z" style="fill:white;fill-rule:nonzero;"/>
        </g>
        <g transform="matrix(4.16667,0,0,4.16667,2110.98,7134.78)">
            <path d="M0,-2.239L0.034,3.063L-1.785,3.063L-1.785,-5.302L-0.655,-5.302L4.453,-0.001L4.409,-5.302L6.218,-5.302L6.218,3.063L5.099,3.063L0,-2.239Z" style="fill:white;fill-rule:nonzero;"/>
        </g>
        <g transform="matrix(4.16667,0,0,4.16667,2168.73,7120.34)">
            <path d="M0,4.691C0.339,4.468 0.603,4.154 0.792,3.747C0.98,3.34 1.074,2.869 1.074,2.334C1.074,1.806 0.98,1.338 0.792,0.931C0.603,0.526 0.339,0.211 0,-0.011C-0.339,-0.234 -0.731,-0.346 -1.175,-0.346L-2.792,-0.346L-2.792,5.024L-1.175,5.024C-0.731,5.024 -0.339,4.913 0,4.691M0.973,-1.311C1.598,-0.961 2.083,-0.471 2.431,0.158C2.778,0.788 2.951,1.512 2.951,2.334C2.951,3.156 2.778,3.884 2.431,4.521C2.083,5.158 1.598,5.651 0.973,6.002C0.347,6.352 -0.372,6.528 -1.186,6.528L-4.612,6.528L-4.612,-1.837L-1.186,-1.837C-0.372,-1.837 0.347,-1.662 0.973,-1.311" style="fill:white;fill-rule:nonzero;"/>
        </g>
        <g transform="matrix(4.16667,0,0,4.16667,2195.1,7113.63)">
            <path d="M0,7.912C-0.498,7.686 -0.874,7.441 -1.13,7.178L-0.452,5.956C-0.166,6.198 0.144,6.39 0.474,6.533C0.806,6.676 1.179,6.748 1.593,6.748C2.038,6.748 2.359,6.667 2.554,6.505C2.751,6.343 2.848,6.153 2.848,5.933C2.848,5.746 2.811,5.592 2.736,5.471C2.66,5.349 2.524,5.237 2.329,5.132C2.132,5.026 1.846,4.913 1.469,4.793L0.881,4.611C0.233,4.4 -0.281,4.121 -0.661,3.775C-1.042,3.429 -1.231,2.916 -1.231,2.238C-1.231,1.718 -1.105,1.264 -0.854,0.875C-0.601,0.487 -0.249,0.187 0.203,-0.024C0.655,-0.234 1.179,-0.339 1.774,-0.339C2.265,-0.339 2.751,-0.244 3.232,-0.051C3.715,0.141 4.091,0.365 4.363,0.621L3.583,1.876C3.297,1.65 3.011,1.474 2.725,1.345C2.438,1.217 2.113,1.152 1.752,1.152C1.368,1.152 1.086,1.233 0.91,1.396C0.732,1.558 0.645,1.751 0.645,1.977C0.645,2.121 0.669,2.243 0.718,2.346C0.767,2.447 0.871,2.547 1.029,2.644C1.187,2.742 1.425,2.844 1.741,2.949L2.34,3.141C3.071,3.376 3.65,3.694 4.081,4.097C4.509,4.5 4.725,5.067 4.725,5.799C4.725,6.213 4.61,6.608 4.379,6.984C4.15,7.362 3.805,7.667 3.346,7.9C2.886,8.134 2.329,8.251 1.672,8.251C1.055,8.251 0.497,8.139 0,7.912" style="fill:white;fill-rule:nonzero;"/>
        </g>
        <g transform="matrix(4.16667,0,0,4.16667,2247.36,7140.69)">
            <path d="M0,-5.076C-0.38,-5.254 -0.797,-5.342 -1.249,-5.342C-1.777,-5.342 -2.238,-5.224 -2.634,-4.991C-3.03,-4.758 -3.336,-4.428 -3.555,-4.003C-3.773,-3.576 -3.883,-3.085 -3.883,-2.527C-3.883,-1.985 -3.771,-1.502 -3.55,-1.08C-3.327,-0.658 -3.015,-0.33 -2.611,-0.097C-2.207,0.138 -1.75,0.254 -1.238,0.254C-0.703,0.254 -0.244,0.149 0.141,-0.062C0.526,-0.274 0.853,-0.597 1.125,-1.034L2.334,0.062C1.927,0.627 1.415,1.051 0.796,1.333C0.179,1.615 -0.53,1.757 -1.328,1.757C-2.195,1.757 -2.965,1.573 -3.639,1.203C-4.314,0.834 -4.838,0.32 -5.211,-0.34C-5.584,-0.999 -5.767,-1.743 -5.759,-2.572C-5.759,-3.408 -5.57,-4.148 -5.194,-4.794C-4.817,-5.437 -4.29,-5.938 -3.611,-6.297C-2.933,-6.654 -2.153,-6.833 -1.271,-6.833C0.137,-6.833 1.249,-6.386 2.063,-5.489L0.932,-4.336C0.69,-4.652 0.38,-4.899 0,-5.076" style="fill:white;fill-rule:nonzero;"/>
        </g>
        <g transform="matrix(4.16667,0,0,4.16667,2285.82,7125.21)">
            <path d="M0,2.351L-1.255,-0.758L-2.521,2.351L0,2.351ZM-5.642,5.358L-2.103,-3.007L-0.418,-3.007L3.119,5.358L1.176,5.358L0.564,3.842L-3.097,3.842L-3.708,5.358L-5.642,5.358Z" style="fill:white;fill-rule:nonzero;"/>
        </g>
        <g transform="matrix(4.16667,0,0,4.16667,2325.05,7131.83)">
            <path d="M0,-0.824C0.234,-1.062 0.351,-1.381 0.351,-1.78C0.351,-2.178 0.233,-2.5 -0.005,-2.74C-0.243,-2.982 -0.562,-3.103 -0.96,-3.103L-2.442,-3.103L-2.442,-0.469L-0.96,-0.469C-0.553,-0.469 -0.233,-0.588 0,-0.824M0.803,-4.249C1.255,-4.019 1.605,-3.698 1.854,-3.284C2.103,-2.868 2.227,-2.39 2.227,-1.847C2.227,-1.282 2.099,-0.783 1.843,-0.35C1.586,0.083 1.227,0.42 0.763,0.662C0.3,0.903 -0.236,1.024 -0.848,1.024L-2.442,1.024L-2.442,3.771L-4.261,3.771L-4.261,-4.595L-0.757,-4.595C-0.169,-4.595 0.351,-4.479 0.803,-4.249" style="fill:white;fill-rule:nonzero;"/>
        </g>
        <g transform="matrix(-4.16667,0,0,4.16667,4244.76,5972.73)">
            <rect x="454.311" y="273.589" width="1.819" height="8.365" style="fill:white;"/>
        </g>
        <g transform="matrix(4.16667,0,0,4.16667,2371.86,7134.78)">
            <path d="M0,-2.239L0.035,3.063L-1.785,3.063L-1.785,-5.302L-0.655,-5.302L4.454,-0.001L4.409,-5.302L6.218,-5.302L6.218,3.063L5.099,3.063L0,-2.239Z" style="fill:white;fill-rule:nonzero;"/>
        </g>
        <g transform="matrix(4.16667,0,0,4.16667,2417.2,7114.71)">
            <path d="M0,7.493C-0.66,7.125 -1.178,6.612 -1.556,5.956C-1.931,5.302 -2.12,4.563 -2.12,3.742C-2.12,2.912 -1.931,2.172 -1.556,1.52C-1.178,0.868 -0.656,0.359 0.01,-0.006C0.677,-0.371 1.426,-0.555 2.254,-0.555C2.933,-0.555 3.576,-0.42 4.187,-0.153C4.798,0.115 5.298,0.498 5.69,0.994L4.447,1.989C4.191,1.658 3.865,1.401 3.47,1.221C3.075,1.04 2.677,0.949 2.276,0.949C1.765,0.949 1.316,1.068 0.932,1.305C0.547,1.542 0.254,1.872 0.051,2.295C-0.153,2.716 -0.255,3.198 -0.255,3.742C-0.255,4.262 -0.15,4.733 0.061,5.16C0.272,5.586 0.569,5.923 0.948,6.172C1.329,6.42 1.765,6.544 2.254,6.544C2.631,6.544 2.97,6.492 3.271,6.387C3.573,6.281 3.8,6.145 3.95,5.979L3.95,4.668L2.197,4.668L2.197,3.256L5.736,3.256L5.736,6.477C4.945,7.524 3.773,8.048 2.221,8.048C1.399,8.048 0.658,7.863 0,7.493" style="fill:white;fill-rule:nonzero;"/>
        </g>
        <g transform="matrix(-4.16667,0,0,4.16667,3797.65,5694.19)">
            <rect x="318.526" y="288.21" width="166.082" height="45.973" style="fill:white;"/>
        </g>
        <g transform="matrix(4.16667,0,0,4.16667,1825.52,7050.21)">
            <path d="M0,-28.92L19.572,-28.92L19.572,-22.694L6.942,-22.694L6.942,-17.482L15.833,-17.482L15.833,-11.695L6.942,-11.695L6.942,-6.225L20.667,-6.225L20.667,0L0,0L0,-28.92Z" style="fill:rgb(104,188,167);fill-rule:nonzero;"/>
        </g>
        <g transform="matrix(4.16667,0,0,4.16667,2232.61,6956.3)">
            <path d="M0,16.578C-0.535,16.481 -1.033,16.325 -1.482,16.093C-2.251,15.694 -2.844,15.128 -3.262,14.391C-3.68,13.657 -3.889,12.798 -3.889,11.817L-3.889,-6.383L-10.831,-6.383L-10.831,11.797C-10.831,14.103 -10.35,16.099 -9.388,17.783C-8.427,19.468 -7.048,20.761 -5.251,21.662C-3.738,22.422 -1.979,22.842 0,22.961L0,16.578Z" style="fill:rgb(104,188,167);fill-rule:nonzero;"/>
        </g>
        <g transform="matrix(4.16667,0,0,4.16667,2258.75,7051.95)">
            <path d="M0,-29.338L0,-11.158C0,-10.177 -0.209,-9.316 -0.626,-8.572C-1.044,-7.83 -1.634,-7.261 -2.397,-6.862C-2.847,-6.627 -3.348,-6.47 -3.889,-6.374L-3.889,0C-1.94,-0.131 -0.205,-0.55 1.292,-1.293C3.109,-2.194 4.505,-3.49 5.479,-5.182C6.454,-6.872 6.941,-8.878 6.941,-11.198L6.941,-29.338L0,-29.338Z" style="fill:rgb(104,188,167);fill-rule:nonzero;"/>
        </g>
        <g transform="matrix(4.16667,0,0,4.16667,2386.72,6940.14)">
            <path d="M0,23.914L0,12.811L-11.527,-2.503L-18.409,-2.503L-18.409,26.417L-11.467,26.417L-11.467,10.684L-11.945,7.999L0,23.914Z" style="fill:rgb(104,188,167);fill-rule:nonzero;"/>
        </g>
        <g transform="matrix(4.16667,0,0,4.16667,451.258,5692.43)">
            <rect x="466.897" y="296.948" width="6.414" height="28.92" style="fill:rgb(104,188,167);"/>
        </g>
        <g transform="matrix(4.16667,0,0,4.16667,2004.88,6943.16)">
            <path d="M0,22.461L0,11.36L-10.982,-3.229L-17.864,-3.229L-17.864,25.69L-10.922,25.69L-10.922,9.957L-11.4,7.273L0,22.461Z" style="fill:rgb(104,188,167);fill-rule:nonzero;"/>
        </g>
        <g transform="matrix(2.52118,3.31734,3.31734,-2.52118,1972.74,7014.75)">
            <path d="M12.847,2.921L12.91,2.921L17.097,8.431L-5.928,25.93L-10.115,20.42" style="fill:rgb(104,188,167);fill-rule:nonzero;"/>
        </g>
        <g transform="matrix(4.16667,0,0,4.16667,2144.26,6976.36)">
            <path d="M0,6.526C1.061,5.956 1.956,5.229 2.686,4.348C3.415,3.465 3.958,2.532 4.316,1.544C4.674,0.555 4.853,-0.396 4.853,-1.311C4.853,-3.247 4.346,-4.961 3.332,-6.453C2.317,-7.945 0.862,-9.108 -1.034,-9.944C-2.931,-10.78 -5.165,-11.197 -7.737,-11.197L-17.543,-11.197L-17.543,17.723L-10.602,17.723L-10.602,-5.011L-7.737,-5.011C-6.159,-5.011 -4.899,-4.683 -3.958,-4.026C-3.017,-3.37 -2.546,-2.458 -2.546,-1.291C-2.546,0.021 -3.014,1.056 -3.948,1.811C-4.816,2.513 -5.981,2.876 -7.416,2.925L-7.416,6.092L-1.67,17.723L5.987,17.723L0,6.526Z" style="fill:rgb(104,188,167);fill-rule:nonzero;"/>
        </g>
    </g>
</svg>
