<?xml version="1.0" encoding="UTF-8" standalone="no"?>
<!DOCTYPE svg PUBLIC "-//W3C//DTD SVG 1.1//EN" "http://www.w3.org/Graphics/SVG/1.1/DTD/svg11.dtd">
<svg width="100%" height="100%" viewBox="0 0 718 263" version="1.1" xmlns="http://www.w3.org/2000/svg" xmlns:xlink="http://www.w3.org/1999/xlink" xml:space="preserve" xmlns:serif="http://www.serif.com/" style="fill-rule:evenodd;clip-rule:evenodd;stroke-linejoin:round;stroke-miterlimit:2;">
    <g transform="matrix(1,0,0,1,-2042.47,-450.483)">
        <g transform="matrix(4.16667,0,0,4.16667,2100.16,682.842)">
            <path d="M0,5.483C-0.32,6.005 -0.772,6.412 -1.358,6.7C-1.944,6.989 -2.616,7.133 -3.373,7.133C-4.131,7.133 -4.802,6.989 -5.387,6.7C-5.973,6.412 -6.428,6.005 -6.752,5.483C-7.077,4.96 -7.238,4.358 -7.238,3.678L-7.238,-1.65L-5.364,-1.65L-5.364,3.596C-5.364,4.19 -5.181,4.669 -4.813,5.031C-4.446,5.395 -3.962,5.576 -3.36,5.576C-2.775,5.576 -2.301,5.395 -1.938,5.031C-1.575,4.669 -1.393,4.19 -1.393,3.596L-1.393,-1.65L0.48,-1.65L0.48,3.678C0.48,4.358 0.32,4.96 0,5.483" style="fill:rgb(105,189,167);fill-rule:nonzero;"/>
        </g>
        <g transform="matrix(4.16667,0,0,4.16667,2133.54,696.732)">
            <path d="M0,-1.301C0.272,-1.531 0.41,-1.83 0.41,-2.196C0.41,-2.572 0.29,-2.871 0.047,-3.099C-0.195,-3.325 -0.52,-3.439 -0.925,-3.439L-2.6,-3.439L-2.6,-0.955L-1.089,-0.955C-0.636,-0.955 -0.273,-1.071 0,-1.301M-0.727,-4.984C-0.117,-4.984 0.42,-4.868 0.885,-4.639C1.349,-4.408 1.71,-4.083 1.968,-3.66C2.225,-3.238 2.354,-2.751 2.354,-2.196C2.354,-1.657 2.215,-1.177 1.939,-0.756C1.662,-0.334 1.276,-0.014 0.784,0.205L3.046,3.683L0.843,3.683L-1.065,0.602L-2.6,0.602L-2.6,3.683L-4.486,3.683L-4.486,-4.984L-0.727,-4.984Z" style="fill:rgb(105,189,167);fill-rule:nonzero;"/>
        </g>
        <g transform="matrix(4.16667,0,0,4.16667,2175.29,683.68)">
            <path d="M0,4.965C0.23,4.77 0.346,4.512 0.346,4.192C0.346,3.881 0.23,3.626 0,3.431C-0.229,3.236 -0.528,3.137 -0.895,3.137L-2.782,3.137L-2.782,5.257L-0.907,5.257C-0.532,5.257 -0.229,5.161 0,4.965M-0.444,1.328C-0.238,1.152 -0.135,0.924 -0.135,0.643C-0.135,0.362 -0.235,0.134 -0.438,-0.042C-0.642,-0.218 -0.911,-0.306 -1.247,-0.306L-2.782,-0.306L-2.782,1.592L-1.271,1.592C-0.927,1.592 -0.652,1.504 -0.444,1.328M1.862,2.98C2.148,3.343 2.291,3.771 2.291,4.262C2.291,4.762 2.169,5.205 1.928,5.592C1.686,5.978 1.344,6.279 0.903,6.494C0.461,6.708 -0.048,6.816 -0.626,6.816L-4.667,6.816L-4.667,-1.851L-0.638,-1.851C-0.162,-1.851 0.262,-1.756 0.633,-1.564C1.004,-1.373 1.29,-1.103 1.494,-0.756C1.696,-0.409 1.798,-0.008 1.798,0.444C1.798,0.819 1.702,1.156 1.511,1.457C1.319,1.758 1.045,2.006 0.686,2.201C1.185,2.357 1.578,2.617 1.862,2.98" style="fill:rgb(105,189,167);fill-rule:nonzero;"/>
        </g>
        <g transform="matrix(4.16667,0,0,4.16667,2215.38,688.944)">
            <path d="M0,2.437L-1.3,-0.784L-2.611,2.437L0,2.437ZM-5.844,5.552L-2.178,-3.115L-0.434,-3.115L3.232,5.552L1.218,5.552L0.585,3.982L-3.209,3.982L-3.842,5.552L-5.844,5.552Z" style="fill:rgb(105,189,167);fill-rule:nonzero;"/>
        </g>
        <g transform="matrix(4.16667,0,0,4.16667,2245.35,698.854)">
            <path d="M0,-2.319L0.035,3.174L-1.851,3.174L-1.851,-5.493L-0.679,-5.493L4.614,-0.001L4.567,-5.493L6.442,-5.493L6.442,3.174L5.282,3.174L0,-2.319Z" style="fill:rgb(105,189,167);fill-rule:nonzero;"/>
        </g>
        <g transform="matrix(4.16667,0,0,4.16667,2303.81,712.078)">
            <path d="M0,-8.667L1.885,-8.667L1.885,-1.558L5.633,-1.558L5.633,0L0,0L0,-8.667Z" style="fill:rgb(105,189,167);fill-rule:nonzero;"/>
        </g>
        <g transform="matrix(4.16667,0,0,4.16667,2357.05,688.944)">
            <path d="M0,2.437L-1.299,-0.784L-2.612,2.437L0,2.437ZM-5.844,5.552L-2.179,-3.115L-0.434,-3.115L3.233,5.552L1.218,5.552L0.586,3.982L-3.209,3.982L-3.841,5.552L-5.844,5.552Z" style="fill:rgb(105,189,167);fill-rule:nonzero;"/>
        </g>
        <g transform="matrix(4.16667,0,0,4.16667,2387.01,698.854)">
            <path d="M0,-2.319L0.036,3.174L-1.85,3.174L-1.85,-5.493L-0.679,-5.493L4.614,-0.001L4.568,-5.493L6.443,-5.493L6.443,3.174L5.284,3.174L0,-2.319Z" style="fill:rgb(105,189,167);fill-rule:nonzero;"/>
        </g>
        <g transform="matrix(4.16667,0,0,4.16667,2446.84,683.893)">
            <path d="M0,4.861C0.351,4.631 0.625,4.304 0.82,3.882C1.016,3.462 1.113,2.974 1.113,2.419C1.113,1.872 1.016,1.388 0.82,0.966C0.625,0.546 0.351,0.219 0,-0.011C-0.352,-0.242 -0.758,-0.357 -1.217,-0.357L-2.892,-0.357L-2.892,5.206L-1.217,5.206C-0.758,5.206 -0.352,5.091 0,4.861M1.008,-1.358C1.656,-0.995 2.159,-0.488 2.519,0.165C2.878,0.817 3.057,1.568 3.057,2.419C3.057,3.27 2.878,4.026 2.519,4.685C2.159,5.345 1.656,5.857 1.008,6.219C0.36,6.582 -0.385,6.764 -1.229,6.764L-4.779,6.764L-4.779,-1.903L-1.229,-1.903C-0.385,-1.903 0.36,-1.721 1.008,-1.358" style="fill:rgb(105,189,167);fill-rule:nonzero;"/>
        </g>
        <g transform="matrix(4.16667,0,0,4.16667,2474.17,676.943)">
            <path d="M0,8.198C-0.516,7.964 -0.906,7.711 -1.171,7.437L-0.468,6.172C-0.171,6.422 0.148,6.621 0.491,6.769C0.835,6.917 1.222,6.992 1.651,6.992C2.111,6.992 2.444,6.908 2.646,6.74C2.85,6.573 2.951,6.376 2.951,6.148C2.951,5.954 2.912,5.794 2.834,5.669C2.755,5.543 2.616,5.427 2.413,5.317C2.209,5.208 1.913,5.091 1.522,4.966L0.913,4.779C0.241,4.56 -0.292,4.27 -0.685,3.911C-1.081,3.553 -1.276,3.022 -1.276,2.319C-1.276,1.78 -1.146,1.31 -0.885,0.907C-0.623,0.505 -0.258,0.195 0.21,-0.024C0.679,-0.242 1.222,-0.351 1.838,-0.351C2.346,-0.351 2.85,-0.253 3.349,-0.052C3.85,0.146 4.239,0.379 4.521,0.644L3.713,1.944C3.416,1.71 3.12,1.527 2.823,1.393C2.526,1.261 2.189,1.194 1.815,1.194C1.417,1.194 1.126,1.278 0.943,1.447C0.759,1.614 0.668,1.815 0.668,2.05C0.668,2.198 0.693,2.324 0.744,2.43C0.794,2.535 0.902,2.638 1.066,2.74C1.23,2.842 1.476,2.947 1.803,3.056L2.424,3.255C3.182,3.498 3.782,3.827 4.229,4.245C4.672,4.663 4.896,5.251 4.896,6.009C4.896,6.438 4.776,6.847 4.538,7.237C4.3,7.629 3.942,7.944 3.467,8.186C2.99,8.428 2.413,8.549 1.733,8.549C1.093,8.549 0.515,8.432 0,8.198" style="fill:rgb(105,189,167);fill-rule:nonzero;"/>
        </g>
        <g transform="matrix(4.16667,0,0,4.16667,2528.32,704.978)">
            <path d="M0,-5.259C-0.395,-5.443 -0.826,-5.534 -1.294,-5.534C-1.841,-5.534 -2.319,-5.413 -2.729,-5.172C-3.139,-4.929 -3.457,-4.588 -3.683,-4.147C-3.909,-3.705 -4.023,-3.196 -4.023,-2.618C-4.023,-2.056 -3.907,-1.555 -3.678,-1.119C-3.448,-0.681 -3.124,-0.342 -2.706,-0.099C-2.287,0.143 -1.813,0.263 -1.282,0.263C-0.728,0.263 -0.252,0.154 0.146,-0.065C0.545,-0.283 0.884,-0.619 1.166,-1.072L2.419,0.064C1.997,0.65 1.466,1.09 0.825,1.382C0.185,1.675 -0.549,1.821 -1.376,1.821C-2.274,1.821 -3.072,1.63 -3.771,1.247C-4.47,0.865 -5.013,0.332 -5.399,-0.352C-5.786,-1.035 -5.976,-1.806 -5.967,-2.664C-5.967,-3.531 -5.771,-4.298 -5.382,-4.967C-4.991,-5.634 -4.445,-6.153 -3.742,-6.525C-3.04,-6.895 -2.231,-7.08 -1.317,-7.08C0.142,-7.08 1.294,-6.616 2.138,-5.687L0.966,-4.492C0.715,-4.82 0.394,-5.076 0,-5.259" style="fill:rgb(105,189,167);fill-rule:nonzero;"/>
        </g>
        <g transform="matrix(4.16667,0,0,4.16667,2568.16,688.944)">
            <path d="M0,2.437L-1.3,-0.784L-2.612,2.437L0,2.437ZM-5.845,5.552L-2.179,-3.115L-0.434,-3.115L3.232,5.552L1.218,5.552L0.585,3.982L-3.209,3.982L-3.842,5.552L-5.845,5.552Z" style="fill:rgb(105,189,167);fill-rule:nonzero;"/>
        </g>
        <g transform="matrix(4.16667,0,0,4.16667,2608.81,695.804)">
            <path d="M0,-0.855C0.242,-1.101 0.363,-1.432 0.363,-1.845C0.363,-2.258 0.241,-2.591 -0.005,-2.84C-0.251,-3.09 -0.582,-3.216 -0.995,-3.216L-2.53,-3.216L-2.53,-0.487L-0.995,-0.487C-0.573,-0.487 -0.242,-0.61 0,-0.855M0.833,-4.403C1.3,-4.166 1.664,-3.832 1.921,-3.403C2.179,-2.973 2.307,-2.477 2.307,-1.916C2.307,-1.33 2.175,-0.812 1.91,-0.364C1.644,0.085 1.271,0.435 0.79,0.686C0.311,0.935 -0.245,1.06 -0.878,1.06L-2.53,1.06L-2.53,3.906L-4.416,3.906L-4.416,-4.761L-0.785,-4.761C-0.176,-4.761 0.363,-4.643 0.833,-4.403" style="fill:rgb(105,189,167);fill-rule:nonzero;"/>
        </g>
        <g transform="matrix(-4.16667,0,0,4.16667,4230.21,-12224.9)">
            <rect x="382.482" y="3096.22" width="1.885" height="8.667" style="fill:rgb(105,189,167);"/>
        </g>
        <g transform="matrix(4.16667,0,0,4.16667,2657.32,698.854)">
            <path d="M0,-2.319L0.036,3.174L-1.85,3.174L-1.85,-5.493L-0.679,-5.493L4.614,-0.001L4.568,-5.493L6.443,-5.493L6.443,3.174L5.283,3.174L0,-2.319Z" style="fill:rgb(105,189,167);fill-rule:nonzero;"/>
        </g>
        <g transform="matrix(4.16667,0,0,4.16667,2704.29,678.07)">
            <path d="M0,7.763C-0.684,7.381 -1.221,6.85 -1.612,6.17C-2.001,5.492 -2.197,4.727 -2.197,3.876C-2.197,3.016 -2.001,2.249 -1.612,1.574C-1.221,0.898 -0.68,0.371 0.01,-0.008C0.702,-0.386 1.477,-0.575 2.335,-0.575C3.039,-0.575 3.706,-0.437 4.339,-0.16C4.971,0.118 5.49,0.514 5.896,1.029L4.608,2.06C4.343,1.717 4.004,1.451 3.595,1.263C3.186,1.076 2.773,0.983 2.359,0.983C1.829,0.983 1.363,1.106 0.966,1.351C0.567,1.597 0.263,1.939 0.053,2.377C-0.159,2.813 -0.264,3.313 -0.264,3.876C-0.264,4.414 -0.156,4.904 0.063,5.346C0.282,5.786 0.589,6.136 0.982,6.393C1.377,6.651 1.829,6.78 2.335,6.78C2.726,6.78 3.077,6.726 3.39,6.617C3.702,6.507 3.937,6.366 4.093,6.195L4.093,4.835L2.277,4.835L2.277,3.372L5.943,3.372L5.943,6.71C5.124,7.795 3.91,8.338 2.301,8.338C1.45,8.338 0.682,8.146 0,7.763" style="fill:rgb(105,189,167);fill-rule:nonzero;"/>
        </g>
        <g transform="matrix(-4.16667,0,0,4.16667,3766.94,-12513.5)">
            <rect x="241.791" y="3111.37" width="172.083" height="47.634" style="fill:rgb(105,189,167);"/>
        </g>
        <g transform="matrix(4.16667,0,0,4.16667,2091.24,611.232)">
            <path d="M0,-29.965L20.279,-29.965L20.279,-23.515L7.193,-23.515L7.193,-18.114L16.405,-18.114L16.405,-12.118L7.193,-12.118L7.193,-6.45L21.413,-6.45L21.413,0L0,0L0,-29.965Z" style="fill:white;fill-rule:nonzero;"/>
        </g>
        <g transform="matrix(4.16667,0,0,4.16667,2513.03,513.935)">
            <path d="M0,17.177C-0.555,17.077 -1.07,16.915 -1.535,16.674C-2.333,16.262 -2.947,15.675 -3.38,14.912C-3.813,14.15 -4.029,13.26 -4.029,12.244L-4.029,-6.614L-11.222,-6.614L-11.222,12.223C-11.222,14.613 -10.724,16.681 -9.728,18.426C-8.731,20.171 -7.303,21.51 -5.441,22.445C-3.874,23.232 -2.05,23.667 0,23.791L0,17.177Z" style="fill:white;fill-rule:nonzero;"/>
        </g>
        <g transform="matrix(4.16667,0,0,4.16667,2540.12,613.036)">
            <path d="M0,-30.398L0,-11.562C0,-10.544 -0.217,-9.652 -0.649,-8.882C-1.082,-8.113 -1.693,-7.523 -2.483,-7.11C-2.95,-6.867 -3.469,-6.704 -4.029,-6.605L-4.029,0C-2.011,-0.135 -0.212,-0.569 1.339,-1.339C3.222,-2.274 4.667,-3.616 5.678,-5.369C6.687,-7.121 7.192,-9.199 7.192,-11.603L7.192,-30.398L0,-30.398Z" style="fill:white;fill-rule:nonzero;"/>
        </g>
        <g transform="matrix(4.16667,0,0,4.16667,2672.71,497.185)">
            <path d="M0,24.778L0,13.274L-11.943,-2.594L-19.074,-2.594L-19.074,27.372L-11.882,27.372L-11.882,11.07L-12.376,8.288L0,24.778Z" style="fill:white;fill-rule:nonzero;"/>
        </g>
        <g transform="matrix(4.16667,0,0,4.16667,1035,-12515.4)">
            <rect x="395.523" y="3120.42" width="6.646" height="29.965" style="fill:white;"/>
        </g>
        <g transform="matrix(4.16667,0,0,4.16667,2277.07,500.32)">
            <path d="M0,23.273L0,11.771L-11.378,-3.346L-18.509,-3.346L-18.509,26.619L-11.317,26.619L-11.317,10.317L-11.812,7.535L0,23.273Z" style="fill:white;fill-rule:nonzero;"/>
        </g>
        <g transform="matrix(2.5,3.33333,3.33333,-2.5,2243.62,574.116)">
            <path d="M13.387,3.088L13.452,3.088L17.754,8.825L-6.218,26.805L-10.521,21.068" style="fill:white;fill-rule:nonzero;"/>
        </g>
        <g transform="matrix(4.16667,0,0,4.16667,2421.5,534.723)">
            <path d="M0,6.76C1.099,6.169 2.026,5.417 2.782,4.503C3.538,3.589 4.101,2.621 4.472,1.597C4.843,0.574 5.028,-0.412 5.028,-1.36C5.028,-3.366 4.503,-5.142 3.452,-6.688C2.401,-8.233 0.893,-9.439 -1.072,-10.304C-3.037,-11.171 -5.352,-11.603 -8.017,-11.603L-18.177,-11.603L-18.177,18.363L-10.985,18.363L-10.985,-5.194L-8.017,-5.194C-6.382,-5.194 -5.077,-4.854 -4.102,-4.173C-3.125,-3.493 -2.638,-2.549 -2.638,-1.34C-2.638,0.02 -3.123,1.093 -4.091,1.875C-4.991,2.603 -6.197,2.978 -7.684,3.03L-7.684,6.311L-1.731,18.363L6.203,18.363L0,6.76Z" style="fill:white;fill-rule:nonzero;"/>
        </g>
    </g>
</svg>
