<?xml version="1.0" encoding="UTF-8" standalone="no"?>
<!DOCTYPE svg PUBLIC "-//W3C//DTD SVG 1.1//EN" "http://www.w3.org/Graphics/SVG/1.1/DTD/svg11.dtd">
<svg width="100%" height="100%" viewBox="0 0 416 86" version="1.1" xmlns="http://www.w3.org/2000/svg" xmlns:xlink="http://www.w3.org/1999/xlink" xml:space="preserve" xmlns:serif="http://www.serif.com/" style="fill-rule:evenodd;clip-rule:evenodd;stroke-linejoin:round;stroke-miterlimit:2;">
    <g transform="matrix(1,0,0,1,-1049.13,-961.819)">
        <g transform="matrix(4.16667,0,0,4.16667,1049.13,1045.65)">
            <path d="M0,-20.12L13.616,-20.12L13.616,-15.789L4.829,-15.789L4.829,-12.163L11.015,-12.163L11.015,-8.137L4.829,-8.137L4.829,-4.331L14.377,-4.331L14.377,0L0,0L0,-20.12Z" style="fill:white;fill-rule:nonzero;"/>
        </g>
        <g transform="matrix(4.16667,0,0,4.16667,1332.34,980.325)">
            <path d="M0,11.533C-0.372,11.466 -0.718,11.357 -1.031,11.195C-1.566,10.918 -1.979,10.524 -2.27,10.012C-2.56,9.501 -2.706,8.903 -2.706,8.22L-2.706,-4.441L-7.535,-4.441L-7.535,8.206C-7.535,9.811 -7.2,11.2 -6.531,12.371C-5.863,13.543 -4.903,14.443 -3.653,15.07C-2.601,15.598 -1.376,15.89 0,15.974L0,11.533Z" style="fill:white;fill-rule:nonzero;"/>
        </g>
        <g transform="matrix(4.16667,0,0,4.16667,1350.53,1046.87)">
            <path d="M0,-20.411L0,-7.764C0,-7.08 -0.146,-6.481 -0.436,-5.964C-0.727,-5.448 -1.137,-5.052 -1.667,-4.775C-1.98,-4.611 -2.329,-4.502 -2.705,-4.435L-2.705,0C-1.35,-0.091 -0.143,-0.383 0.899,-0.9C2.163,-1.527 3.134,-2.429 3.813,-3.605C4.491,-4.782 4.83,-6.177 4.83,-7.791L4.83,-20.411L0,-20.411Z" style="fill:white;fill-rule:nonzero;"/>
        </g>
        <g transform="matrix(4.16667,0,0,4.16667,1439.55,969.081)">
            <path d="M0,16.636L0,8.912L-8.02,-1.742L-12.808,-1.742L-12.808,18.378L-7.978,18.378L-7.978,7.432L-8.31,5.564L0,16.636Z" style="fill:white;fill-rule:nonzero;"/>
        </g>
        <g transform="matrix(4.16667,0,0,4.16667,-126.575,-11748.4)">
            <rect x="377.531" y="3050.46" width="4.462" height="20.12" style="fill:white;"/>
        </g>
        <g transform="matrix(4.16667,0,0,4.16667,1173.9,971.183)">
            <path d="M0,15.626L0,7.903L-7.64,-2.247L-12.428,-2.247L-12.428,17.873L-7.599,17.873L-7.599,6.927L-7.931,5.059L0,15.626Z" style="fill:white;fill-rule:nonzero;"/>
        </g>
        <g transform="matrix(2.48468,3.34477,3.34477,-2.48468,1151.36,1020.55)">
            <path d="M9.025,2.104L9.068,2.104L11.94,5.969L-4.212,17.967L-7.083,14.102" style="fill:white;fill-rule:nonzero;"/>
        </g>
        <g transform="matrix(4.16667,0,0,4.16667,1270.88,994.281)">
            <path d="M0,4.539C0.738,4.142 1.361,3.637 1.868,3.024C2.375,2.41 2.754,1.76 3.003,1.073C3.252,0.385 3.376,-0.276 3.376,-0.913C3.376,-2.26 3.023,-3.453 2.318,-4.49C1.612,-5.528 0.6,-6.337 -0.719,-6.919C-2.039,-7.501 -3.593,-7.791 -5.383,-7.791L-12.205,-7.791L-12.205,12.33L-7.375,12.33L-7.375,-3.487L-5.383,-3.487C-4.285,-3.487 -3.409,-3.259 -2.754,-2.802C-2.099,-2.346 -1.771,-1.711 -1.771,-0.899C-1.771,0.014 -2.097,0.734 -2.747,1.259C-3.351,1.747 -4.161,1.999 -5.16,2.034L-5.16,4.237L-1.163,12.33L4.165,12.33L0,4.539Z" style="fill:white;fill-rule:nonzero;"/>
        </g>
    </g>
</svg>
