<?xml version="1.0" encoding="UTF-8" standalone="no"?>
<!DOCTYPE svg PUBLIC "-//W3C//DTD SVG 1.1//EN" "http://www.w3.org/Graphics/SVG/1.1/DTD/svg11.dtd">
<svg width="100%" height="100%" viewBox="0 0 177 177" version="1.1" xmlns="http://www.w3.org/2000/svg" xmlns:xlink="http://www.w3.org/1999/xlink" xml:space="preserve" xmlns:serif="http://www.serif.com/" style="fill-rule:evenodd;clip-rule:evenodd;stroke-linejoin:round;stroke-miterlimit:2;">
    <g transform="matrix(1,0,0,1,-1151.7,-917.576)">
        <g transform="matrix(4.16667,0,0,4.16667,1161.24,1006.1)">
            <path d="M0,-0.019C0.008,10.494 8.576,19.02 19.143,18.92C29.562,18.822 37.991,10.212 37.876,-0.191C37.76,-10.662 29.177,-19.076 18.706,-18.944C8.289,-18.812 0.007,-10.311 0,-0.019M18.944,-21.245C30.744,-21.243 40.401,-11.542 40.165,0.417C39.937,11.983 30.45,21.226 18.934,21.218C7.1,21.21 -2.522,11.496 -2.287,-0.442C-2.059,-12.001 7.416,-21.245 18.944,-21.245" style="fill:white;fill-rule:nonzero;"/>
        </g>
        <g transform="matrix(4.16667,0,0,4.16667,1199.31,1034.58)">
            <path d="M0,-15.125C0.006,-16.312 0.22,-17.69 0.923,-18.956C1.2,-19.456 1.55,-19.891 2.012,-20.24C2.576,-20.667 3.124,-21.115 3.681,-21.552C4.223,-21.979 4.867,-21.885 5.234,-21.305C6.541,-19.244 7.843,-17.179 9.14,-15.112C9.52,-14.506 9.337,-13.883 8.703,-13.55C8.085,-13.224 7.466,-12.9 6.848,-12.575C6.154,-12.21 5.923,-11.738 6.062,-10.961C6.202,-10.176 6.502,-9.446 6.918,-8.775C7.971,-7.076 9.009,-5.367 10.136,-3.718C10.71,-2.878 11.452,-2.152 12.14,-1.394C12.3,-1.218 12.535,-1.091 12.758,-0.993C13.157,-0.817 13.541,-0.844 13.892,-1.153C14.443,-1.637 15.009,-2.105 15.569,-2.579C16.113,-3.038 16.781,-2.945 17.161,-2.345C18.466,-0.283 19.769,1.782 21.066,3.849C21.441,4.446 21.244,5.103 20.613,5.404C20.015,5.689 19.4,5.946 18.818,6.26C17.788,6.815 16.702,6.854 15.591,6.659C13.771,6.338 12.197,5.476 10.742,4.375C8.863,2.954 7.312,1.215 5.931,-0.68C4.048,-3.262 2.437,-5.998 1.262,-8.98C0.471,-10.988 0.002,-13.165 0,-15.125" style="fill:white;fill-rule:nonzero;"/>
        </g>
    </g>
</svg>
