<?xml version="1.0" encoding="UTF-8" standalone="no"?>
<!DOCTYPE svg PUBLIC "-//W3C//DTD SVG 1.1//EN" "http://www.w3.org/Graphics/SVG/1.1/DTD/svg11.dtd">
<svg width="100%" height="100%" viewBox="0 0 324 324" version="1.1" xmlns="http://www.w3.org/2000/svg" xmlns:xlink="http://www.w3.org/1999/xlink" xml:space="preserve" xmlns:serif="http://www.serif.com/" style="fill-rule:evenodd;clip-rule:evenodd;stroke-linejoin:round;stroke-miterlimit:2;">
    <g transform="matrix(1,0,0,1,-1769.6,-6859.92)">
        <g transform="matrix(0,-4.16667,-4.16667,0,1931.33,6859.92)">
            <path d="M-38.816,-38.815C-60.253,-38.815 -77.631,-21.437 -77.631,0C-77.631,21.438 -60.253,38.816 -38.816,38.816C-17.379,38.816 0,21.438 0,0C0,-21.437 -17.379,-38.815 -38.816,-38.815" style="fill:white;fill-rule:nonzero;"/>
        </g>
        <g transform="matrix(4.16667,0,0,4.16667,1856.72,7075.55)">
            <path d="M0,-25.484C0.01,-27.485 0.37,-29.805 1.555,-31.938C2.022,-32.781 2.612,-33.514 3.39,-34.102C4.341,-34.821 5.264,-35.576 6.201,-36.313C7.115,-37.032 8.2,-36.874 8.819,-35.896C11.021,-32.423 13.214,-28.945 15.399,-25.462C16.04,-24.44 15.732,-23.392 14.664,-22.83C13.622,-22.282 12.58,-21.735 11.538,-21.187C10.37,-20.572 9.979,-19.778 10.213,-18.468C10.45,-17.146 10.954,-15.916 11.655,-14.785C13.429,-11.923 15.179,-9.043 17.078,-6.264C18.045,-4.85 19.296,-3.627 20.455,-2.349C20.725,-2.052 21.12,-1.838 21.495,-1.673C22.168,-1.378 22.814,-1.423 23.406,-1.943C24.334,-2.759 25.288,-3.547 26.233,-4.345C27.149,-5.119 28.274,-4.963 28.914,-3.952C31.113,-0.476 33.307,3.001 35.494,6.484C36.126,7.491 35.793,8.597 34.73,9.105C33.722,9.585 32.688,10.018 31.706,10.547C29.971,11.482 28.142,11.548 26.269,11.219C23.202,10.679 20.55,9.226 18.1,7.371C14.934,4.976 12.32,2.046 9.992,-1.146C6.821,-5.497 4.105,-10.107 2.126,-15.131C0.793,-18.514 0.003,-22.18 0,-25.484" style="fill:rgb(104,188,167);fill-rule:nonzero;"/>
        </g>
    </g>
</svg>
