<?xml version="1.0" encoding="utf-8"?>
<!-- Generator: Adobe Illustrator 24.0.1, SVG Export Plug-In . SVG Version: 6.00 Build 0)  -->
<svg version="1.1" id="Layer_1" xmlns="http://www.w3.org/2000/svg" xmlns:xlink="http://www.w3.org/1999/xlink" x="0px" y="0px"
	 viewBox="0 0 80 80" style="enable-background:new 0 0 80 80;" xml:space="preserve">
<style type="text/css">
	.st0{fill:#69BDA7;}
</style>
<g>
	<path class="st0" d="M28.75,1.95c0.42-0.13,0.84-0.23,1.27-0.33c0.7-0.17,1.41-0.35,2.12-0.47c1-0.18,2.01-0.35,3.02-0.45
		c1.26-0.13,2.52-0.24,3.78-0.25c1.38-0.01,2.76,0.09,4.14,0.15c0.42,0.02,0.83,0.04,1.25,0.09c0.64,0.07,1.29,0.15,1.93,0.26
		c0.65,0.11,1.28,0.27,1.93,0.4c0.56,0.12,1.13,0.21,1.69,0.35c2.04,0.53,4.04,1.19,5.96,2.09c1.17,0.55,2.34,1.13,3.5,1.7
		c0.75,0.37,1.2,0.97,1.33,1.79c0.1,0.61-0.67,1.59-1.25,1.84c-0.79,0.33-1.4-0.02-2.06-0.34c-1.43-0.69-2.86-1.4-4.31-2.04
		c-0.83-0.37-1.69-0.7-2.57-0.95c-1.3-0.37-2.62-0.72-3.95-0.96c-1.38-0.25-2.79-0.42-4.19-0.51c-1.52-0.1-3.05-0.14-4.57-0.08
		C36.5,4.29,35.25,4.51,34,4.72c-1.3,0.22-2.6,0.44-3.87,0.78c-1.12,0.3-2.2,0.73-3.28,1.15c-1.12,0.44-2.26,0.87-3.31,1.45
		c-1.66,0.92-3.31,1.9-4.87,2.98c-1.65,1.14-3.15,2.48-4.55,3.93c-0.5,0.52-1.02,1.01-1.47,1.56c-0.65,0.79-1.26,1.61-1.86,2.44
		c-0.65,0.9-1.35,1.79-1.87,2.76c-0.89,1.66-1.68,3.37-2.47,5.08c-0.36,0.79-0.66,1.62-0.9,2.46c-0.31,1.09-0.56,2.2-0.8,3.31
		c-0.17,0.75-0.31,1.51-0.43,2.27c-0.1,0.64-0.21,1.28-0.24,1.93C4,38.6,3.97,40.37,3.9,42.14c-0.03,0.82-0.78,1.63-1.64,1.73
		c-0.77,0.09-1.68-0.32-2.06-1.35c-0.03-0.08-0.08-0.16-0.08-0.23c0.01-1.27,0.03-2.55,0.04-3.82c0-0.24,0-0.48,0.03-0.71
		c0.13-1.15,0.26-2.3,0.41-3.45c0.1-0.75,0.21-1.5,0.35-2.24c0.1-0.55,0.26-1.09,0.4-1.63c0.22-0.85,0.4-1.71,0.69-2.54
		c0.46-1.32,0.96-2.63,1.5-3.92c0.44-1.03,0.9-2.06,1.47-3.03c0.83-1.4,1.74-2.76,2.64-4.12c1.09-1.63,2.39-3.09,3.77-4.48
		c0.78-0.78,1.65-1.48,2.43-2.26c1.21-1.22,2.67-2.11,4.02-3.13c0.64-0.48,1.36-0.85,2.06-1.24c0.82-0.46,1.66-0.88,2.49-1.31
		c0.47-0.24,0.95-0.47,1.5-0.74"/>
	<path class="st0" d="M39.81,10.61c-1.05,0-2.1-0.06-3.14,0.02c-0.89,0.06-1.78,0.21-2.65,0.43c-1.63,0.42-3.26,0.87-4.85,1.42
		c-1.05,0.36-2.07,0.87-3.05,1.4c-1.2,0.65-2.38,1.35-3.5,2.14c-0.96,0.67-1.86,1.45-2.73,2.24c-0.79,0.71-1.58,1.45-2.25,2.27
		c-1,1.21-1.95,2.47-2.83,3.76c-0.66,0.98-1.23,2.03-1.75,3.09c-0.43,0.88-0.77,1.81-1.09,2.74c-0.39,1.14-0.79,2.29-1.05,3.46
		c-0.27,1.21-0.4,2.45-0.53,3.68c-0.11,1.08-0.1,2.17-0.19,3.25c-0.08,0.96-0.15,1.92-0.35,2.86c-0.33,1.56-1.89,2.02-3.09,1.22
		c-0.55-0.37-0.79-1.28-0.66-1.94c0.15-0.76,0.26-1.52,0.31-2.29c0.07-1.04,0.02-2.1,0.11-3.14c0.09-1.04,0.24-2.08,0.46-3.1
		c0.34-1.58,0.71-3.16,1.15-4.71c0.22-0.77,0.6-1.5,0.91-2.25c0.2-0.49,0.37-1,0.6-1.48c0.27-0.56,0.56-1.12,0.9-1.65
		c0.89-1.41,1.73-2.87,2.73-4.2c1.03-1.37,2.12-2.71,3.45-3.83c1.15-0.96,2.23-2,3.41-2.93c0.77-0.61,1.63-1.12,2.49-1.61
		c1.22-0.69,2.46-1.37,3.73-1.94c1.12-0.5,2.3-0.87,3.47-1.26C30.71,7.97,31.6,7.7,32.5,7.5c0.99-0.22,2.01-0.34,3.01-0.5
		c0.31-0.05,0.62-0.13,0.93-0.16c0.39-0.04,0.78-0.08,1.16-0.08c1.42-0.01,2.84-0.06,4.25,0.01c1.13,0.06,2.26,0.21,3.37,0.42
		c1.49,0.28,2.99,0.59,4.45,1.02c1.34,0.39,2.65,0.89,3.92,1.47c2.53,1.15,4.92,2.54,7.05,4.34c1.07,0.91,2.13,1.85,3.15,2.82
		c0.55,0.52,1.08,1.08,1.49,1.71c0.34,0.52,0.48,1.22,0.15,1.78c-0.3,0.51-0.76,0.89-1.46,1.02c-1.11,0.21-1.62-0.53-2.25-1.14
		c-0.76-0.74-1.47-1.53-2.26-2.23c-0.83-0.74-1.68-1.49-2.61-2.1c-1.36-0.89-2.79-1.68-4.22-2.46c-1.7-0.92-3.53-1.51-5.39-2
		c-1.14-0.3-2.32-0.47-3.49-0.62c-1.31-0.17-2.63-0.24-3.94-0.36C39.82,10.5,39.82,10.55,39.81,10.61z"/>
	<path class="st0" d="M54.38,40.11c-0.08,1.75-0.09,3.09-0.2,4.42c-0.11,1.32-0.29,2.63-0.5,3.94c-0.22,1.4-0.46,2.79-0.76,4.17
		c-0.28,1.32-0.62,2.64-0.96,3.95c-0.67,2.55-1.64,5.01-2.7,7.41c-1.1,2.49-2.37,4.9-3.85,7.19c-1.13,1.75-2.36,3.46-3.61,5.13
		c-0.78,1.05-1.66,2.03-2.56,2.98c-0.51,0.55-1.64,0.59-2.35,0.03c-0.98-0.77-0.89-2.03-0.17-2.88c1.23-1.45,2.43-2.92,3.56-4.44
		c0.91-1.22,1.71-2.53,2.52-3.83c0.5-0.81,0.94-1.66,1.37-2.51c0.56-1.08,1.14-2.15,1.62-3.26c0.64-1.5,1.21-3.02,1.78-4.55
		c0.35-0.93,0.69-1.86,0.94-2.82c0.31-1.16,0.54-2.35,0.8-3.52c0.16-0.75,0.33-1.5,0.46-2.26c0.12-0.71,0.21-1.42,0.3-2.13
		c0.12-0.94,0.23-1.89,0.33-2.84c0.03-0.32,0.06-0.64,0.06-0.96c0.02-1.28,0.08-2.56,0.02-3.83c-0.04-0.83-0.24-1.66-0.41-2.47
		c-0.21-0.96-0.62-1.85-1.19-2.64c-0.53-0.74-1.08-1.49-1.73-2.13c-0.77-0.76-1.66-1.38-2.68-1.81c-0.66-0.28-1.27-0.63-1.49-1.42
		c-0.19-0.7,0.01-1.48,0.57-1.94c0.65-0.54,1.36-0.59,2.06-0.29c1.13,0.48,2.18,1.08,3.13,1.84c1.23,0.98,2.36,2.08,3.18,3.44
		c0.52,0.86,1.03,1.74,1.4,2.66c0.36,0.92,0.6,1.9,0.79,2.88C54.27,38.57,54.32,39.55,54.38,40.11z"/>
	<path class="st0" d="M79.54,38.17c0,0.67,0.01,1.46,0,2.24c-0.02,1.27,0,2.55-0.1,3.81c-0.11,1.56-0.32,3.11-0.49,4.66
		c-0.11,0.96-0.21,1.92-0.35,2.87c-0.09,0.62-0.22,1.24-0.35,1.86c-0.08,0.37-0.17,0.74-0.26,1.12c-0.2,0.77-1.07,1.32-2,1.19
		c-0.75-0.11-1.32-0.49-1.58-1.42c-0.07-0.26-0.05-0.57-0.01-0.85c0.21-1.4,0.47-2.79,0.67-4.19c0.19-1.34,0.35-2.68,0.5-4.02
		c0.06-0.58,0.08-1.17,0.09-1.75c0.04-1.65,0.12-3.3,0.07-4.95c-0.04-1.25-0.22-2.5-0.41-3.75c-0.2-1.27-0.43-2.54-0.75-3.79
		c-0.36-1.41-0.75-2.83-1.29-4.19c-0.58-1.46-1.27-2.88-2.04-4.24c-0.85-1.5-1.81-2.94-2.77-4.37c-1.08-1.61-2.51-2.92-3.86-4.29
		c-0.6-0.61-1.3-1.14-1.9-1.76c-0.53-0.55-0.57-1.24-0.26-1.92c0.26-0.58,0.7-0.94,1.36-1.08c0.83-0.16,1.45,0.19,1.99,0.72
		c1.31,1.28,2.68,2.52,3.88,3.91c1.28,1.47,2.48,3.04,3.56,4.66c1.31,1.97,2.4,4.08,3.27,6.28c0.39,0.99,0.8,1.98,1.14,2.99
		c0.24,0.7,0.37,1.43,0.55,2.14c0.14,0.56,0.33,1.1,0.43,1.66c0.22,1.2,0.4,2.41,0.57,3.62C79.33,36.24,79.42,37.15,79.54,38.17z"/>
	<path class="st0" d="M22.87,41.01c-0.12,0.9-0.19,1.81-0.36,2.71c-0.15,0.78-1.1,1.41-2,1.26c-0.76-0.12-1.35-0.53-1.54-1.26
		c-0.14-0.53-0.08-1.11-0.06-1.66c0.02-0.57,0.15-1.13,0.15-1.69c-0.02-1.46,0.07-2.92,0.36-4.35c0.47-2.27,1.28-4.43,2.47-6.43
		c1.11-1.87,2.46-3.56,4.09-4.99c1.25-1.1,2.61-2.07,4.1-2.85c1.5-0.78,3.06-1.42,4.7-1.81c1.26-0.3,2.53-0.58,3.84-0.55
		c0.55,0.01,1.12-0.1,1.67-0.07c0.98,0.07,1.95,0.2,2.93,0.31c1.61,0.18,3.15,0.65,4.61,1.3c1.15,0.51,2.25,1.14,3.32,1.79
		c0.75,0.46,1.48,0.99,2.13,1.58c0.81,0.74,0.83,2.12-0.28,2.86c-0.87,0.58-1.81,0.33-2.62-0.33c-0.65-0.52-1.32-1.02-2.04-1.43
		c-0.86-0.48-1.76-0.91-2.68-1.26c-1.19-0.45-2.42-0.8-3.71-0.88c-0.73-0.05-1.47-0.18-2.2-0.15c-1.13,0.04-2.26,0.13-3.38,0.37
		c-1.6,0.34-3.12,0.87-4.55,1.64c-1.55,0.83-2.97,1.84-4.15,3.15c-0.79,0.87-1.56,1.77-2.2,2.75c-0.73,1.12-1.36,2.31-1.72,3.62
		c-0.23,0.84-0.51,1.68-0.7,2.53c-0.13,0.56-0.14,1.15-0.19,1.73c-0.05,0.71-0.08,1.42-0.12,2.13C22.78,41,22.82,41.01,22.87,41.01z
		"/>
	<path class="st0" d="M48.74,18.45c-0.53-0.15-1-0.27-1.47-0.43c-1.26-0.42-2.54-0.77-3.87-0.93c-0.61-0.07-1.22-0.21-1.83-0.31
		c-0.18-0.03-0.36-0.02-0.55-0.02c-0.88,0.02-1.76,0.01-2.63,0.09c-1.12,0.11-2.24,0.28-3.35,0.47c-0.79,0.14-1.6,0.3-2.36,0.55
		c-0.98,0.33-1.94,0.71-2.87,1.17c-1.07,0.53-2.11,1.12-3.11,1.76c-1.63,1.06-3.09,2.35-4.34,3.83c-1.07,1.27-2.01,2.68-2.91,4.08
		c-0.49,0.76-0.8,1.64-1.18,2.47c-0.32,0.7-0.82,1.2-1.6,1.3c-0.81,0.11-1.45-0.26-1.86-0.91c-0.39-0.62-0.28-1.29-0.02-1.95
		c0.59-1.53,1.4-2.95,2.31-4.3c0.61-0.92,1.27-1.82,1.98-2.66c0.85-1,1.72-1.99,2.7-2.85c1.21-1.06,2.47-2.08,3.91-2.86
		c0.62-0.33,1.19-0.77,1.83-1.06c1.14-0.52,2.31-0.98,3.49-1.42c0.82-0.3,1.66-0.56,2.51-0.75c0.95-0.22,1.91-0.41,2.88-0.5
		c1.43-0.14,2.86-0.28,4.29-0.24c1.29,0.03,2.57,0.29,3.85,0.47c0.6,0.08,1.19,0.19,1.77,0.34c1.05,0.29,2.11,0.58,3.14,0.95
		c0.56,0.2,1.06,0.88,1.08,1.51c0.03,0.78-0.16,1.46-0.93,1.83C49.35,18.25,49.04,18.34,48.74,18.45z"/>
	<path class="st0" d="M41.92,41.51c-0.12,0.99-0.23,1.96-0.36,2.94c-0.11,0.85-0.21,1.7-0.35,2.54c-0.18,1.07-0.38,2.13-0.62,3.19
		c-0.24,1.1-0.52,2.19-0.82,3.27c-0.18,0.66-0.43,1.3-0.66,1.94c-0.28,0.79-0.55,1.58-0.86,2.35c-0.26,0.65-0.57,1.28-0.88,1.9
		c-0.57,1.14-1.13,2.29-1.75,3.4c-0.42,0.76-0.93,1.48-1.41,2.21c-0.58,0.87-1.13,1.76-1.77,2.57c-0.99,1.24-2.01,2.46-3.08,3.63
		c-0.96,1.05-1.99,2.03-3.02,3.01c-0.49,0.47-1.03,0.91-1.58,1.32c-0.7,0.54-1.67,0.49-2.38-0.07c-0.54-0.43-0.82-1.42-0.53-2.1
		c0.13-0.31,0.37-0.59,0.61-0.83c1.39-1.35,2.84-2.64,4.19-4.03c1-1.02,1.92-2.13,2.8-3.25c0.66-0.83,1.25-1.72,1.79-2.62
		c0.85-1.43,1.66-2.89,2.43-4.36c0.53-1.01,0.99-2.06,1.43-3.11c0.31-0.74,0.55-1.51,0.79-2.28c0.25-0.8,0.49-1.6,0.68-2.41
		c0.28-1.2,0.53-2.41,0.76-3.62c0.19-1.01,0.37-2.03,0.5-3.05c0.1-0.84,0.13-1.69,0.18-2.54c0.04-0.7,0.24-1.32,0.82-1.73
		c1-0.71,2.55-0.31,2.96,1.01C41.87,41.02,41.88,41.27,41.92,41.51z"/>
	<path class="st0" d="M29.26,37.59c-0.06,1.56-0.08,3.11-0.18,4.67c-0.15,2.08-0.46,4.14-1.01,6.15c-0.32,1.19-0.7,2.36-1.11,3.52
		c-0.6,1.67-1.37,3.26-2.26,4.79c-0.9,1.55-1.85,3.06-3.04,4.4c-1.16,1.3-2.29,2.65-3.59,3.8c-1.36,1.21-2.89,2.24-4.37,3.31
		c-0.57,0.41-1.41,0.21-2.02-0.28c-0.64-0.5-0.73-1.18-0.65-1.86c0.07-0.62,0.58-0.99,1.09-1.34c0.83-0.56,1.68-1.1,2.43-1.75
		c1.03-0.9,1.99-1.88,2.95-2.85c1.71-1.74,3.08-3.75,4.24-5.88c0.71-1.31,1.28-2.71,1.8-4.11c0.46-1.24,0.82-2.53,1.13-3.81
		c0.23-0.96,0.38-1.95,0.46-2.93c0.13-1.54,0.15-3.09,0.28-4.63c0.06-0.69,0.21-1.39,0.42-2.05c0.26-0.8,1.48-1.27,2.27-0.92
		C28.96,36.22,29.34,36.69,29.26,37.59z"/>
	<path class="st0" d="M73.14,40.5c0,1.24,0.04,2.49-0.01,3.73c-0.07,1.48-0.18,2.96-0.34,4.44c-0.11,1.09-0.31,2.18-0.5,3.27
		c-0.3,1.72-0.58,3.44-0.93,5.15c-0.27,1.3-0.59,2.59-0.96,3.87c-0.44,1.52-0.95,3.02-1.46,4.52c-0.27,0.81-0.6,1.6-0.92,2.4
		c-0.27,0.67-0.95,0.98-1.7,0.88c-0.35-0.05-0.66-0.11-0.97-0.28c-0.71-0.38-0.96-1.33-0.74-2.02c0.26-0.85,0.62-1.67,0.9-2.51
		c0.3-0.89,0.55-1.8,0.82-2.7c0.31-1.04,0.66-2.06,0.91-3.11c0.35-1.48,0.64-2.98,0.94-4.47c0.17-0.84,0.32-1.67,0.45-2.52
		c0.12-0.79,0.22-1.59,0.3-2.38c0.12-1.07,0.23-2.14,0.33-3.22c0.05-0.48,0.08-0.97,0.09-1.46c0.04-1.76,0.09-3.53,0.07-5.29
		c0-0.74-0.14-1.49-0.24-2.23c-0.13-1.02,0.67-2.16,1.77-2.22c1.16-0.06,1.99,0.81,2.08,1.97c0.11,1.39,0.15,2.78,0.23,4.17
		C73.23,40.5,73.18,40.5,73.14,40.5z"/>
	<path class="st0" d="M34.62,48.04c-0.14,0.6-0.27,1.2-0.42,1.8c-0.19,0.74-0.36,1.49-0.61,2.21c-0.48,1.35-1,2.69-1.54,4.02
		c-1.01,2.47-2.33,4.79-3.91,6.94c-1,1.36-2.08,2.66-3.2,3.92c-1,1.11-2.07,2.17-3.19,3.17c-0.89,0.8-1.87,1.5-2.84,2.2
		c-1.23,0.9-2.85,0.14-3.02-1.37c-0.08-0.67,0.21-1.27,0.76-1.66c1.7-1.19,3.27-2.53,4.71-4.02c1.1-1.14,2.1-2.38,3.08-3.63
		c0.78-1,1.54-2.03,2.17-3.13c0.76-1.33,1.46-2.7,2.05-4.12c0.68-1.63,1.21-3.31,1.78-4.98c0.17-0.5,0.23-1.04,0.35-1.56
		c0.21-0.93,0.77-1.59,1.74-1.67c1.01-0.09,1.72,0.49,2.03,1.4c0.05,0.14,0.01,0.31,0.01,0.46C34.57,48.03,34.6,48.03,34.62,48.04z"
		/>
	<path class="st0" d="M66.82,40.56c0,1.09,0.01,2.18,0,3.27c-0.01,0.71-0.81,1.48-1.44,1.57c-1.54,0.22-2.55-0.83-2.26-2.37
		c0.02-0.11,0.01-0.22,0.01-0.34c0-1.18,0.05-2.36-0.01-3.54c-0.06-1.11-0.18-2.23-0.41-3.32c-0.27-1.34-0.58-2.68-1.04-3.97
		c-0.53-1.5-1.28-2.92-2.14-4.27c-1.07-1.67-2.33-3.18-3.75-4.55c-0.76-0.73-1.6-1.38-2.48-1.97c-1.07-0.72-1.33-2.22-0.31-3.12
		c0.61-0.53,1.55-0.68,2.51,0.01c1.38,1,2.69,2.1,3.86,3.34c0.57,0.6,1.09,1.25,1.59,1.91c0.69,0.91,1.39,1.81,2.01,2.77
		c0.87,1.35,1.62,2.77,2.13,4.3c0.31,0.93,0.69,1.85,0.92,2.8c0.31,1.31,0.55,2.63,0.73,3.96c0.15,1.16,0.17,2.33,0.24,3.5
		C66.92,40.55,66.87,40.56,66.82,40.56z"/>
	<path class="st0" d="M48.06,40.79c-0.04,0.82-0.06,1.64-0.11,2.47c-0.06,0.93-0.96,1.78-1.9,1.8c-0.93,0.02-1.9-0.91-1.88-1.83
		c0.01-0.99,0.07-1.98,0.08-2.97c0.01-1.32-0.43-2.47-1.41-3.39c-0.72-0.67-1.58-1.07-2.54-1.15c-1.9-0.16-3.38,0.59-4.32,2.26
		c-0.36,0.64-0.57,1.36-0.57,2.12c0,0.7,0.04,1.41-0.01,2.1c-0.07,0.95-0.59,1.57-1.47,1.86c-0.89,0.3-2.11-0.38-2.3-1.43
		c-0.07-0.37-0.03-0.76-0.01-1.14c0.05-1.03,0.02-2.07,0.19-3.08c0.17-1.07,0.66-2.06,1.29-2.96c0.82-1.18,1.88-2.07,3.18-2.72
		c1.34-0.67,2.75-0.9,4.2-0.8c1.81,0.12,3.4,0.81,4.77,2.03c0.99,0.88,1.72,1.92,2.2,3.13C47.92,38.28,48.14,39.51,48.06,40.79z"/>
	<path class="st0" d="M55.43,53.46c0.11,0.18,0.18,0.3,0.25,0.41c0.03-0.01,0.05-0.03,0.08-0.04c-0.08-0.16-0.16-0.32-0.24-0.49
		c-0.11-0.23-0.15-0.43,0.29-0.38c-0.49-0.45-0.06-0.87-0.01-1.29c0.11-1.01,0.34-2.01,0.49-3.01c0.11-0.72,0.19-1.45,0.26-2.18
		c0.23-2.66,0.31-5.32,0.26-7.99c-0.01-0.32-0.03-0.65,0-0.97c0.12-1.09,1.24-1.66,2.24-1.44c0.81,0.18,1.38,0.76,1.45,1.74
		c0.08,1.15,0.18,2.31,0.16,3.46c-0.02,1.51-0.12,3.03-0.25,4.54c-0.11,1.23-0.29,2.47-0.5,3.69c-0.33,1.91-0.67,3.81-1.08,5.7
		c-0.31,1.42-0.7,2.82-1.12,4.21c-0.33,1.1-0.71,2.19-1.18,3.24c-0.55,1.24-2.14,1.45-3.07,0.42c-0.64-0.71-0.49-1.48-0.23-2.31
		c0.64-1.98,1.2-3.98,1.79-5.98C55.16,54.36,55.29,53.95,55.43,53.46z"/>
	<path class="st0" d="M14.83,35.21c1.23-0.09,2.04,1.23,1.84,2.32c-0.17,0.95-0.1,1.95-0.14,2.92c-0.08,1.93-0.28,3.85-0.93,5.69
		c-0.41,1.18-0.81,2.37-1.37,3.47c-0.83,1.61-1.87,3.09-3.1,4.44c-0.92,1.01-1.93,1.9-3.01,2.73c-0.55,0.42-1.1,0.86-1.72,1.13
		c-0.76,0.34-1.67,0.26-2.31-0.6c-0.47-0.63-0.58-1.53,0.05-2.24c0.27-0.31,0.62-0.57,0.97-0.8c1.65-1.08,3.05-2.43,4.24-4.01
		c1.14-1.52,2.02-3.18,2.58-5.01c0.31-1.03,0.5-2.08,0.68-3.13c0.19-1.07,0.07-2.12,0.14-3.18c0.06-0.83,0.13-1.65,0.26-2.47
		C13.13,35.77,13.98,35.21,14.83,35.21z"/>
	<path class="st0" d="M8.62,63.5c-0.71-0.05-1.45-0.57-1.6-1.11c-0.31-1.15,0.05-1.82,0.76-2.34c1.26-0.93,2.56-1.82,3.76-2.83
		c0.81-0.68,1.49-1.52,2.18-2.33c1.21-1.42,2.18-3,3.01-4.67c0.23-0.47,0.44-0.95,0.64-1.43c0.36-0.83,1.26-1.19,1.86-1.1
		c1.31,0.2,1.71,0.98,1.73,1.75c0.01,0.57-0.25,1.18-0.49,1.72c-0.95,2.1-2.11,4.08-3.57,5.85c-0.97,1.17-2.06,2.25-3.16,3.31
		c-1.17,1.14-2.53,2.06-3.92,2.91c-0.34,0.21-0.77,0.26-1.17,0.38C8.64,63.58,8.63,63.54,8.62,63.5z"/>
	<path class="st0" d="M54.19,74.26c-0.08-0.68,0.37-1.17,0.63-1.72c0.56-1.16,1.19-2.28,1.74-3.44c0.56-1.15,1.11-2.31,1.58-3.51
		c0.67-1.71,1.23-3.46,1.87-5.18c0.22-0.6,0.31-1.26,0.86-1.73c1.09-0.91,2.71-0.35,3.09,1c0.16,0.57-0.06,1.04-0.22,1.52
		c-0.57,1.7-1.16,3.4-1.82,5.07c-0.63,1.61-1.3,3.22-2.05,4.78c-0.7,1.46-1.5,2.87-2.3,4.27c-0.42,0.73-1.27,0.98-2.08,0.74
		C54.75,75.83,54.11,75.09,54.19,74.26z"/>
	<path class="st0" d="M39.38,63.41c0.76-0.08,1.28,0.35,1.64,0.9c0.44,0.69,0.34,1.45-0.1,2.13c-1.07,1.65-2.13,3.31-3.27,4.92
		c-0.66,0.94-1.44,1.81-2.21,2.67c-1.12,1.25-2.26,2.48-3.41,3.7c-0.45,0.48-0.95,0.87-1.67,0.85c-0.79-0.02-1.43-0.48-1.68-1.04
		c-0.44-0.99-0.12-1.67,0.41-2.25c1.34-1.44,2.71-2.86,4.02-4.33c0.81-0.91,1.56-1.87,2.25-2.87c0.85-1.22,1.63-2.49,2.4-3.76
		C38.14,63.71,38.67,63.44,39.38,63.41z"/>
	<path class="st0" d="M52.54,65.53c1.45,0,2.32,1.42,1.66,2.72c-0.59,1.18-1.14,2.4-1.81,3.53c-1.04,1.76-2.17,3.46-3.29,5.18
		c-0.4,0.62-0.81,1.24-1.33,1.76c-0.63,0.63-1.54,0.63-2.3,0.11c-0.68-0.46-1.07-1.56-0.61-2.29c0.47-0.76,1.02-1.46,1.5-2.22
		c0.98-1.55,1.97-3.09,2.89-4.67c0.61-1.05,1.11-2.17,1.68-3.24C51.23,65.84,51.87,65.44,52.54,65.53z"/>
	<path class="st0" d="M45.42,46.83c1.16-0.04,2.09,1.08,1.85,2.36c-0.24,1.28-0.5,2.56-0.84,3.81c-0.43,1.57-0.94,3.12-1.45,4.67
		c-0.23,0.71-0.51,1.41-0.82,2.09c-0.3,0.65-0.68,1.24-1.44,1.49c-0.73,0.25-1.83-0.25-2.19-0.93c-0.44-0.83-0.12-1.52,0.19-2.27
		c0.4-0.95,0.77-1.93,1.08-2.92c0.48-1.53,0.91-3.07,1.32-4.62c0.18-0.67,0.25-1.38,0.38-2.07C43.65,47.6,44.45,46.75,45.42,46.83z"
		/>
	<path class="st0" d="M30.18,33.69c-0.56-0.06-1.17-0.34-1.49-1c-0.48-0.97-0.3-1.51,0.36-2.26c0.94-1.07,2.01-2.03,3.25-2.74
		c1.56-0.88,3.2-1.58,5-1.85c0.48-0.07,0.92-0.16,1.4,0.01c0.83,0.29,1.32,1.16,1.24,1.84c-0.11,1.02-0.57,1.6-1.56,1.78
		c-1.36,0.23-2.67,0.64-3.86,1.32c-1.02,0.58-1.95,1.31-2.72,2.21C31.37,33.49,30.93,33.69,30.18,33.69z"/>
	<path class="st0" d="M67.42,23c0.99,0.03,1.56,0.65,1.99,1.56c0.41,0.85,0.84,1.68,1.2,2.54c0.35,0.84,0.72,1.7,0.88,2.58
		c0.15,0.8-0.37,1.67-1.46,1.99c-0.83,0.24-1.9-0.39-2.17-1.09c-0.42-1.07-0.85-2.14-1.31-3.2c-0.25-0.59-0.54-1.17-0.86-1.72
		c-0.45-0.79,0.09-2.04,0.81-2.33C66.82,23.21,67.12,23.11,67.42,23z"/>
	<path class="st0" d="M66.21,50.18c-0.08,0.47-0.21,1.28-0.35,2.1c-0.13,0.74-0.23,1.49-0.4,2.22c-0.18,0.76-0.64,1.33-1.43,1.49
		c-0.81,0.16-1.54-0.1-2.01-0.8c-0.34-0.5-0.4-1.09-0.26-1.7c0.2-0.88,0.35-1.78,0.51-2.67c0.09-0.51,0.12-1.04,0.26-1.54
		c0.29-1.05,1.12-1.6,2.2-1.42C65.51,47.98,66.29,48.59,66.21,50.18z"/>
	<path class="st0" d="M3.42,52.05c-0.99-0.01-1.55-0.64-1.76-1.14c-0.46-1.1,0.02-1.8,0.53-2.3c0.63-0.62,1.29-1.21,1.9-1.85
		c0.71-0.75,2-0.88,2.73-0.15c0.81,0.81,0.9,1.82,0.06,2.73c-0.78,0.85-1.66,1.61-2.54,2.36C4.11,51.91,3.73,51.94,3.42,52.05z"/>
	<path class="st0" d="M53.85,29.98c0.08-0.78,0.62-1.61,1.24-1.83c0.84-0.3,1.89,0.06,2.35,0.86c0.46,0.79,0.88,1.61,1.29,2.43
		c0.53,1.05,0.06,2.13-0.82,2.57c-0.83,0.42-2,0.24-2.55-0.82c-0.39-0.75-0.81-1.49-1.19-2.24C54.03,30.64,53.96,30.3,53.85,29.98z"
		/>
</g>
</svg>
