<?xml version="1.0" encoding="utf-8"?>
<!-- Generator: Adobe Illustrator 24.0.1, SVG Export Plug-In . SVG Version: 6.00 Build 0)  -->
<svg version="1.1" id="Layer_1" xmlns="http://www.w3.org/2000/svg" xmlns:xlink="http://www.w3.org/1999/xlink" x="0px" y="0px"
	 viewBox="0 0 80 95" style="enable-background:new 0 0 80 95;" xml:space="preserve">
<style type="text/css">
	.st0{fill:#69BDA7;}
</style>
<g>
	<path class="st0" d="M76.12,82.69c-0.35-0.79-0.74-1.55-1.13-2.33c-1.12-2.25-2.24-4.5-3.37-6.74c-0.04-0.09-0.12-0.16-0.2-0.23
		l-0.69-1.37c-0.06-0.27-0.17-0.52-0.3-0.78c-1.44-2.86-2.86-5.73-4.29-8.59c-1.26-2.52-2.53-5.04-3.8-7.56
		c-0.13-0.26-0.1-0.44,0.12-0.66c2.4-2.46,4.37-5.22,5.85-8.33c1.27-2.68,2.17-5.47,2.63-8.4c0.31-1.94,0.44-3.89,0.39-5.85
		c-0.04-1.99-0.31-3.96-0.7-5.9c-0.1-0.49-0.26-0.97-0.4-1.5l-0.57-1.62c-0.16-0.69-0.39-1.35-0.66-1.98
		c-1.37-3.25-3.21-6.19-5.57-8.82c-3.28-3.65-7.2-6.36-11.75-8.17c-2.48-0.99-5.07-1.6-7.73-1.91c-3.62-0.42-7.2-0.2-10.75,0.63
		c-2.36,0.55-4.63,1.38-6.79,2.49c-5.47,2.79-9.75,6.85-12.84,12.14c-2.37,4.05-3.7,8.43-4.06,13.11c-0.29,3.8,0.11,7.53,1.16,11.19
		c0.25,0.87,0.57,1.72,0.91,2.56c0.33,0.83,0.7,1.65,1.1,2.44c0.39,0.78,0.82,1.55,1.26,2.3c1.23,2.06,2.72,3.93,4.41,5.63
		c0.19,0.2,0.22,0.38,0.1,0.6c-0.15,0.29-0.31,0.57-0.45,0.86c-1.52,3.04-3.03,6.09-4.55,9.13c-0.32,0.63-0.63,1.26-0.95,1.9
		l-0.08-0.02L4.79,82.37c-0.38,0.72-0.33,1.42,0.15,1.98c0.43,0.5,1.14,0.66,1.88,0.38c3.62-1.35,7.23-2.71,10.85-4.06
		c0.3-0.11,0.58-0.3,0.76,0.21c0.6,1.69,1.24,3.37,1.87,5.04c0.77,2.04,1.54,4.08,2.32,6.12c0.25,0.65,0.77,0.97,1.45,0.99
		c0.68,0.01,1.19-0.32,1.49-0.94c0.34-0.72,0.67-1.44,0.99-2.16c0.21-0.47,0.41-0.94,0.6-1.38c-0.01,0-0.01-0.01-0.02-0.01
		l0.58-1.26c0.04-0.05,0.08-0.12,0.11-0.17c0.18-0.38,0.35-0.77,0.53-1.15c0.16-0.36,0.32-0.71,0.48-1.07l0.19-0.41l-0.01,0
		c1.31-2.92,2.61-5.85,3.92-8.77c0.93-2.07,1.85-4.13,2.78-6.2c0.83-1.84,1.67-3.68,2.49-5.53c0.12-0.27,0.27-0.32,0.56-0.32
		c1.08,0.02,2.16,0.03,3.24,0c0.31-0.01,0.46,0.08,0.58,0.35c1.17,2.62,2.35,5.23,3.52,7.85c1.43,3.17,2.86,6.34,4.28,9.52
		c0.85,1.9,1.7,3.8,2.55,5.7c0.76,1.69,1.52,3.38,2.3,5.05c0.44,0.94,1.6,1.25,2.4,0.59c0.32-0.26,0.56-0.68,0.71-1.07
		c0.83-2.15,1.66-4.3,2.42-6.48l0.32-0.8c0.16-0.32,0.35-0.64,0.39-1l1.08-2.74l4.1,1.4c1.1,0.41,2.2,0.82,3.31,1.23
		c1.35,0.51,2.71,1.02,4.06,1.52c0.64,0.24,1.25,0.14,1.73-0.35C76.23,83.93,76.4,83.33,76.12,82.69z M25.75,83.77l-1.57,3.22
		c-0.07-0.13-0.11-0.23-0.15-0.32c-0.8-2.14-1.61-4.28-2.41-6.43c-0.28-0.76-0.56-1.52-0.85-2.27c-0.41-1.09-1.28-1.44-2.44-1
		c-2.8,1.06-5.61,2.11-8.42,3.16c-0.1,0.04-0.21,0.06-0.44,0.13c0.68-1.37,1.31-2.65,1.97-3.98c-0.03,0-0.06,0-0.09,0l0.49-0.97
		c0.08-0.09,0.15-0.18,0.22-0.26c0.11-0.13,0.15-0.27,0.11-0.41l0.24-0.48c0.02,0.02,0.04,0.03,0.06,0.05
		c0.14-0.27,0.28-0.53,0.39-0.79c0.02-0.04,0.01-0.1-0.01-0.15l0.28-0.55c0.05-0.03,0.1-0.06,0.14-0.1
		c0.09-0.13,0.15-0.29,0.22-0.43c-0.02-0.02-0.04-0.04-0.06-0.06l0.23-0.45c0.03,0,0.06,0,0.1,0c0.03-0.14,0.08-0.27,0.11-0.4
		l0.32-0.63c0.02,0.02,0.04,0.04,0.06,0.06c2.29-4.58,4.57-9.13,6.87-13.72c4.11,3.25,8.69,5.3,13.87,6.27
		C31.91,70.08,28.85,76.89,25.75,83.77z M38.67,60.42c-4.23-0.27-8.22-1.45-11.91-3.56c-4.41-2.52-7.89-5.98-10.44-10.37l-0.75-1.41
		c-0.35-0.83-0.76-1.64-1.08-2.48c-0.71-1.82-1.19-3.71-1.49-5.65c-0.31-2.06-0.45-4.13-0.23-6.2c0.17-1.57,0.42-3.15,0.74-4.7
		c0.42-2.03,1.17-3.95,2.11-5.8c1.49-2.94,3.44-5.55,5.86-7.8c1.99-1.86,4.2-3.39,6.63-4.6c0.19-0.09,0.38-0.18,0.57-0.28
		c0.19-0.09,0.37-0.19,0.57-0.29C29.17,7.13,29.11,7,29,6.77c0.34,0.1,0.73,0.83,0.82,0.08c0.22,0,0.41,0.06,0.56,0
		c2.54-0.95,5.15-1.56,7.86-1.76c3.61-0.27,7.14,0.12,10.59,1.22c2.07,0.66,4.03,1.56,5.89,2.68c4.41,2.67,7.81,6.3,10.21,10.86
		c0.57,1.07,0.99,2.22,1.47,3.34l0.69,2.38l0.44,1.65l0.03-0.01c0.02,0.09,0.05,0.18,0.07,0.28c0.4,2.23,0.56,4.47,0.45,6.74
		c-0.11,2.21-0.48,4.37-1.12,6.48c-0.92,3.08-2.34,5.91-4.26,8.49c-1.95,2.62-4.29,4.85-7.01,6.66c-2.63,1.75-5.48,3.01-8.54,3.8
		C44.37,60.35,41.53,60.6,38.67,60.42z M71.18,80.24c-1.7-0.63-3.4-1.27-5.09-1.9c0.02,0.02,0.03,0.05,0.05,0.07l-1.27-0.48
		c-0.32-0.19-0.68-0.33-1.05-0.45c-0.57-0.2-1.14-0.42-1.72-0.61c-0.88-0.28-1.68,0.07-2.01,0.92c-0.5,1.28-0.97,2.57-1.46,3.86
		c-0.63,1.69-1.27,3.38-1.9,5.07c-0.04,0.1-0.1,0.19-0.2,0.38c-3.59-7.99-7.15-15.9-10.72-23.84c0.9-0.21,1.72-0.39,2.54-0.6
		c3.38-0.89,6.52-2.33,9.41-4.3c0.15-0.1,0.22-0.3,0.35-0.49c0.66,0.12,0.94-0.63,1.55-0.84c0.07,0.12,0.16,0.25,0.23,0.38
		c1.87,3.74,3.73,7.48,5.6,11.22c0.85,1.71,1.71,3.42,2.57,5.12c0.02,0.04,0.07,0.09,0.12,0.13l0.4,0.8
		c0.01,0.12,0.04,0.25,0.05,0.37c0.05,0.01,0.1,0.02,0.15,0.03l0.24,0.49c0,0.01,0,0.02,0,0.03c0,0.04,0.04,0.1,0.09,0.14l0.3,0.6
		c-0.01,0.01-0.02,0.02-0.04,0.02c0.62,1.26,1.25,2.52,1.87,3.78C71.22,80.18,71.2,80.21,71.18,80.24z"/>
	<path class="st0" d="M58.56,46.52c1.88-2.46,3.21-5.2,3.96-8.2c0.61-2.48,0.85-5,0.59-7.56l-0.68-3.92
		c-0.2-0.65-0.4-1.29-0.62-1.93c-0.9-2.59-2.26-4.91-4.05-6.97c-3.96-4.55-8.93-7.23-14.95-7.88c-4.58-0.5-8.93,0.34-13.01,2.45
		c-3.02,1.57-5.55,3.74-7.61,6.45c-1.48,1.95-2.63,4.1-3.42,6.42c-0.6,1.79-0.96,3.63-1.12,5.52c-0.18,2.13-0.04,4.23,0.35,6.31
		c0.35,1.81,0.93,3.55,1.72,5.22c1.91,4.03,4.75,7.25,8.52,9.62c3.52,2.21,7.37,3.38,11.54,3.47c2.65,0.06,5.24-0.28,7.75-1.13
		C52.01,52.9,55.69,50.27,58.56,46.52z M20.81,32.59c0.06-10.67,8.75-19.45,19.58-19.44c10.84,0,19.59,8.77,19.57,19.66
		c-0.02,10.68-8.66,19.53-19.63,19.5C29.47,52.28,20.76,43.46,20.81,32.59z"/>
	<path class="st0" d="M52.3,20.57c-1.04-0.19-1.93,0.14-2.55,1.05c-0.35,0.51-0.72,1.01-1.08,1.52c-3.6,5.01-7.2,10.02-10.8,15.03
		c-0.34,0.47-0.33,0.47-0.74,0.02c-2.12-2.37-4.25-4.74-6.38-7.11c-0.67-0.74-1.79-0.99-2.73-0.6c-0.84,0.35-1.52,1.23-1.46,2.29
		c-0.06,0.57,0.19,1.1,0.56,1.56c0.35,0.44,0.76,0.84,1.13,1.26c2.49,2.78,4.99,5.56,7.47,8.35c1.21,1.37,3.02,1.35,4.08-0.09
		c0.47-0.64,0.91-1.29,1.37-1.93c2.39-3.32,4.77-6.64,7.16-9.97c1.82-2.54,3.64-5.08,5.46-7.61c0.44-0.62,0.53-1.32,0.35-2.03
		C53.9,21.36,53.25,20.74,52.3,20.57z"/>
</g>
</svg>
