<?xml version="1.0" encoding="utf-8"?>
<!-- Generator: Adobe Illustrator 24.0.1, SVG Export Plug-In . SVG Version: 6.00 Build 0)  -->
<svg version="1.1" id="Layer_1" xmlns="http://www.w3.org/2000/svg" xmlns:xlink="http://www.w3.org/1999/xlink" x="0px" y="0px"
	 viewBox="0 0 110 70" style="enable-background:new 0 0 110 70;" xml:space="preserve">
<style type="text/css">
	.st0{fill:#69BDA7;}
</style>
<path class="st0" d="M80.34,53.42c-0.44,2.11-1.64,3.6-3.42,4.56c-1.86,1.01-3.74,0.81-5.54-0.29c0.14,2.16-1.14,3.61-2.61,4.87
	c-1.59,1.37-3.46,1.47-5.44,0.84c-0.12,0.28-0.23,0.56-0.35,0.83c-0.51,1.18-1.46,1.96-2.56,2.53c-1.56,0.81-3.23,1.11-4.95,0.63
	c-1.22-0.34-2.41-0.75-3.61-1.15c-0.3-0.1-0.46-0.11-0.67,0.19c-0.64,0.93-1.38,1.79-2.46,2.25c-1.1,0.47-2.19,0.75-3.44,0.52
	c-1.29-0.24-2.36-0.78-3.25-1.7c-0.64-0.66-1.09-1.44-1.34-2.33c-0.08-0.29-0.2-0.3-0.43-0.22c-0.97,0.33-1.96,0.43-2.96,0.23
	c-1.66-0.34-2.95-1.21-3.82-2.67c-0.25-0.41-0.44-0.86-0.68-1.34c-1.84,0.95-3.71,0.85-5.49-0.16c-1.81-1.03-2.68-2.7-2.85-4.81
	c-2.42,0.3-4.42-0.45-5.74-2.49c-1.32-2.03-1.23-4.15-0.04-6.29c-0.42-0.33-0.86-0.66-1.3-1c-1.06-0.83-2.13-1.66-3.18-2.51
	c-0.23-0.18-0.43-0.17-0.65-0.08c-0.99,0.41-1.97,0.31-2.9-0.14c-1.29-0.62-2.57-1.28-3.85-1.93c-1.44-0.73-2.89-1.42-4.31-2.19
	c-1.19-0.64-2.01-1.91-1.77-3.54C0.82,35.44,1.12,35,1.35,34.5c0.68-1.42,1.38-2.83,2.09-4.24c0.46-0.9,0.95-1.79,1.41-2.7
	c0.44-0.87,0.84-1.76,1.28-2.64c0.62-1.23,1.26-2.44,1.87-3.67c0.97-1.93,1.91-3.87,2.88-5.8c0.83-1.65,1.69-3.28,2.52-4.92
	c0.8-1.59,1.57-3.2,2.39-4.78c0.89-1.72,2.9-2.27,4.64-1.42c1.09,0.53,2.15,1.11,3.23,1.65c1.51,0.76,3.01,1.55,4.54,2.25
	c0.85,0.39,1.48,0.95,1.87,1.77c0.34,0.73,0.55,1.47,0.23,2.29c-0.23,0.57-0.2,0.62,0.48,1.02c0.93,0.54,1.85,1.14,2.84,1.54
	c1.11,0.46,2.29,0.74,3.45,1.07c0.09,0.03,0.31-0.12,0.36-0.23c0.68-1.44,1.66-2.64,2.8-3.73c1.1-1.05,2.37-1.89,3.71-2.6
	c1.78-0.94,3.65-1.63,5.6-2.05c1.17-0.25,2.36-0.45,3.55-0.56c1.36-0.13,2.72-0.2,4.08-0.16c1.31,0.04,2.63,0.18,3.92,0.41
	c1.7,0.3,3.39,0.67,5.05,1.13c1.12,0.31,2.17,0.83,3.27,1.22c1.36,0.48,2.72,0.94,4.1,1.37c2.11,0.67,4.27,1,6.49,0.8
	c0.22-0.02,0.44-0.08,0.65-0.13c0.2-0.05,0.39-0.13,0.65-0.22c-0.22-0.43-0.42-0.86-0.65-1.28c-0.58-1.06-0.67-2.14-0.13-3.25
	c0.37-0.77,1.01-1.26,1.75-1.62c1.38-0.67,2.77-1.34,4.15-2.01c1.2-0.57,2.39-1.15,3.6-1.69c0.46-0.21,0.94-0.39,1.43-0.51
	c1.27-0.32,2.68,0.36,3.25,1.42c0.73,1.35,1.37,2.74,2.05,4.12c0.68,1.39,1.36,2.78,2.03,4.17c0.99,2.06,1.98,4.12,2.97,6.18
	c0.54,1.12,1.1,2.22,1.64,3.34c0.84,1.74,1.67,3.48,2.51,5.21c0.54,1.11,1.11,2.22,1.65,3.33c0.62,1.27,1.24,2.54,1.82,3.83
	c0.68,1.53-0.03,3.43-1.55,4.17c-1.61,0.78-3.23,1.54-4.84,2.31c-1.37,0.65-2.71,1.35-4.09,1.97c-1.45,0.64-3.36-0.23-3.91-1.51
	c-0.15-0.35-0.34-0.69-0.51-1.04c-0.1-0.2-0.24-0.29-0.46-0.15c-1.35,0.84-2.58,1.83-3.55,3.11c-0.79,1.04-1.41,2.17-1.62,3.47
	c-0.04,0.26,0.14,0.59,0.28,0.85c1.94,3.54,0,7.74-3.78,8.73c-1.58,0.41-3.1,0.17-4.51-0.66C80.66,53.6,80.51,53.51,80.34,53.42z
	 M53.08,63.88c0.83,0.3,1.61,0.63,2.41,0.87c0.54,0.16,1.13,0.27,1.69,0.23c1.13-0.08,2.16-0.47,3.01-1.29
	c0.77-0.75,0.72-1.81-0.18-2.37c-0.24-0.14-0.46-0.3-0.7-0.45c-1.42-0.92-2.84-1.83-4.25-2.76c-0.6-0.4-0.77-1.21-0.37-1.77
	c0.43-0.6,1.12-0.85,1.82-0.4c0.8,0.51,1.6,1.04,2.4,1.56c1.62,1.05,3.26,2.09,4.88,3.14c0.85,0.55,1.7,0.85,2.76,0.61
	c1.33-0.31,2.42-1.39,2.62-2.66c0.2-1.31-0.11-2.5-1.19-3.32c-1.76-1.35-3.58-2.63-5.37-3.93c-0.41-0.3-0.55-0.82-0.39-1.29
	c0.3-0.87,1.33-1.2,2.11-0.62c1.25,0.91,2.5,1.81,3.75,2.71c1.56,1.12,3.14,2.23,4.7,3.36c0.91,0.66,2.07,0.65,2.97,0.13
	c0.84-0.48,1.47-1.18,1.83-2.08c0.18-0.46,0.18-0.96-0.02-1.42c-0.29-0.67-0.81-1.15-1.4-1.56c-2.15-1.5-4.31-2.99-6.43-4.52
	c-0.28-0.2-0.46-0.64-0.53-0.99c-0.09-0.5,0.18-0.91,0.62-1.19c0.56-0.36,1.08-0.23,1.58,0.12c0.99,0.69,1.96,1.39,2.95,2.08
	c1.16,0.81,2.33,1.61,3.49,2.41c1.12,0.77,2.28,1.51,3.36,2.33c1.19,0.9,2.43,1.39,3.91,0.83c1.18-0.45,1.87-1.36,2.06-2.53
	c0.23-1.44-0.35-2.66-1.57-3.48c-1.77-1.19-3.57-2.32-5.36-3.48c-2.3-1.5-4.6-3-6.9-4.5c-2.37-1.54-4.74-3.06-7.1-4.6
	c-2.14-1.39-4.27-2.79-6.4-4.18c-1.47-0.96-2.94-1.91-4.42-2.86c-1.48-0.96-2.96-1.91-4.44-2.87c-0.21-0.13-0.39-0.17-0.53,0.12
	c-0.07,0.16-0.21,0.3-0.32,0.44c-1.26,1.76-2.49,3.54-3.8,5.27c-1,1.32-2.35,2.25-3.86,2.91c-1.92,0.83-3.94,1.21-6.04,1.12
	c-1.11-0.05-2.16-0.3-3.11-0.86c-0.76-0.45-1.31-1.09-1.52-1.96c-0.21-0.85,0-1.67,0.38-2.43c0.68-1.37,1.42-2.71,2.08-4.09
	c0.68-1.41,1.29-2.85,1.93-4.28c0.11-0.26,0.2-0.53,0.26-0.69c-1.37-0.46-2.69-0.82-3.93-1.35c-1.25-0.54-2.42-1.25-3.64-1.9
	c-0.01,0.01-0.04,0.05-0.06,0.1c-0.89,1.75-1.79,3.49-2.67,5.24c-0.92,1.82-1.81,3.65-2.73,5.47c-1.4,2.78-2.82,5.56-4.22,8.34
	c-1.1,2.19-2.19,4.39-3.29,6.58c-0.27,0.53-0.26,0.6,0.22,0.96c0.73,0.56,1.45,1.14,2.18,1.7c0.64,0.49,1.29,0.97,1.96,1.47
	c0.18-0.24,0.31-0.43,0.46-0.61c0.53-0.63,1.01-1.33,1.62-1.86c1.29-1.13,2.84-1.53,4.52-1.27c0.99,0.15,1.88,0.53,2.67,1.19
	c0.73,0.61,1.31,1.33,1.73,2.24c1.74-1.78,3.76-2.42,6.13-1.68c2.4,0.75,3.59,2.52,4,4.95c1.86-0.2,3.57,0.07,4.99,1.4
	c1.4,1.31,1.93,2.93,1.9,4.79C53.38,54.2,56.22,59.9,53.08,63.88z M82.47,13.62c-0.63,0.15-1.21,0.32-1.81,0.42
	c-0.7,0.12-1.41,0.26-2.11,0.23c-1.22-0.06-2.44-0.14-3.63-0.47c-1.1-0.31-2.24-0.51-3.33-0.86c-1.39-0.45-2.75-0.98-4.11-1.51
	c-2.65-1.04-5.41-1.64-8.21-2.01c-1.21-0.16-2.46-0.12-3.69-0.1c-1.12,0.02-2.24,0.11-3.34,0.25c-1.1,0.15-2.2,0.33-3.27,0.63
	c-2.3,0.65-4.44,1.63-6.3,3.16c-1.49,1.23-2.65,2.67-3.2,4.59c-0.37,1.31-0.87,2.59-1.43,3.83c-0.8,1.79-1.69,3.53-2.55,5.28
	c-0.33,0.68-0.7,1.35-1.03,2.02c-0.16,0.32-0.05,0.68,0.3,0.78c0.65,0.2,1.31,0.41,1.97,0.47c1.09,0.1,2.17-0.15,3.23-0.4
	c1.97-0.48,3.57-1.54,4.77-3.15c1.1-1.47,2.1-3.01,3.17-4.51c0.47-0.66,0.97-1.32,1.51-1.93c0.37-0.41,0.85-0.75,1.45-0.46
	c0.34,0.16,0.62,0.43,0.93,0.64c0.91,0.6,1.82,1.21,2.74,1.8c1.94,1.25,3.88,2.48,5.82,3.73c1.36,0.88,2.71,1.78,4.08,2.64
	c1.26,0.79,2.62,1.1,4.08,0.65c1.53-0.47,2.67-1.49,3.67-2.71c0.2-0.24,0.49-0.47,0.78-0.56c0.53-0.17,1.13,0.12,1.47,0.61
	c0.26,0.38,0.24,0.99-0.1,1.46c-1.26,1.71-2.86,2.99-4.96,3.74c5.75,3.72,11.44,7.4,17.14,11.08c0.06-0.1,0.14-0.19,0.19-0.3
	c0.32-0.64,0.58-1.32,0.95-1.93c1.28-2.12,3.1-3.69,5.22-4.92c0.2-0.12,0.26-0.16,0.15-0.39c-0.83-1.71-1.63-3.43-2.46-5.14
	c-0.77-1.59-1.56-3.17-2.33-4.76c-0.86-1.78-1.7-3.57-2.56-5.36c-0.78-1.62-1.58-3.23-2.37-4.84C83,14.73,82.72,14.14,82.47,13.62z
	 M3.32,36.53c-0.02,0.41,0.22,0.6,0.51,0.74c0.97,0.49,1.95,0.97,2.92,1.46c1.63,0.82,3.25,1.65,4.88,2.46
	c0.92,0.46,1.13,0.35,1.59-0.59c0.82-1.67,1.67-3.33,2.51-4.99c0.98-1.94,1.95-3.88,2.92-5.82c0.9-1.79,1.78-3.58,2.68-5.36
	c0.64-1.28,1.3-2.56,1.94-3.84c0.75-1.49,1.49-2.99,2.25-4.48c0.69-1.36,1.4-2.72,2.09-4.08c0.28-0.55,0.15-0.96-0.29-1.18
	c-1.53-0.78-3.05-1.57-4.58-2.35c-1.18-0.6-2.36-1.19-3.55-1.77c-0.44-0.22-0.85-0.09-1.07,0.33c-0.52,0.99-1.04,2-1.54,3
	c-0.46,0.91-0.88,1.84-1.34,2.75c-0.92,1.82-1.87,3.63-2.79,5.45c-0.69,1.37-1.35,2.75-2.03,4.11c-1.3,2.6-2.61,5.2-3.92,7.79
	c-0.93,1.84-1.87,3.68-2.8,5.52C3.54,35.94,3.44,36.24,3.32,36.53z M97.82,38.42c0.16-0.05,0.32-0.09,0.46-0.16
	c0.68-0.32,1.35-0.65,2.03-0.98c2.07-1,4.14-2,6.21-3.01c0.44-0.21,0.55-0.58,0.34-0.99c-0.15-0.3-0.31-0.59-0.45-0.89
	c-1.06-2.2-2.1-4.4-3.17-6.59c-0.66-1.35-1.39-2.68-2.04-4.04c-1.06-2.19-2.06-4.41-3.11-6.6c-1.07-2.23-2.18-4.45-3.27-6.68
	c-0.73-1.5-1.46-3.01-2.18-4.52c-0.32-0.68-0.78-0.66-1.28-0.41c-1.77,0.89-3.55,1.76-5.32,2.63c-0.95,0.47-1.9,0.94-2.85,1.41
	c-0.3,0.15-0.47,0.39-0.35,0.72c0.24,0.61,0.5,1.21,0.79,1.79c0.4,0.81,0.84,1.59,1.24,2.39c0.66,1.34,1.29,2.69,1.95,4.03
	c0.91,1.86,1.84,3.71,2.74,5.57c0.74,1.53,1.44,3.08,2.19,4.61c1.41,2.92,2.85,5.84,4.27,8.75c0.39,0.8,0.75,1.61,1.15,2.41
	C97.27,38.12,97.4,38.45,97.82,38.42z M27.3,56.04c0,1.43,0.68,2.44,1.91,2.87c1.27,0.45,2.49,0.14,3.33-0.95
	c0.5-0.65,0.96-1.34,1.44-2c0.56-0.77,1.13-1.52,1.69-2.29c0.82-1.11,1.63-2.23,2.44-3.35c0.71-0.98,0.81-2.03,0.26-3.11
	c-0.87-1.7-3.08-2.13-4.43-0.92c-0.71,0.63-1.23,1.48-1.81,2.25c-1.28,1.72-2.53,3.46-3.8,5.18C27.79,54.46,27.22,55.17,27.3,56.04z
	 M42.42,50.79c-0.87-0.03-1.67,0.47-2.28,1.29c-1.28,1.74-2.54,3.49-3.82,5.23c-0.54,0.74-1.01,1.47-0.98,2.46
	c0.05,1.69,1.38,2.81,2.92,2.85c0.95,0.02,1.82-0.43,2.41-1.26c0.87-1.22,1.76-2.43,2.65-3.65c0.6-0.83,1.26-1.63,1.79-2.5
	c0.27-0.44,0.46-1.02,0.45-1.53C45.52,52.12,44.34,50.77,42.42,50.79z M48.91,56.98c-1.08,0-1.76,0.35-2.42,1.22
	c-0.86,1.15-1.72,2.29-2.56,3.45c-0.27,0.38-0.57,0.77-0.7,1.21c-0.33,1.14-0.18,2.21,0.74,3.07c0.92,0.86,2.22,1.13,3.45,0.46
	c0.67-0.37,1.05-0.96,1.47-1.53c0.75-1.02,1.48-2.06,2.26-3.06c0.63-0.82,0.87-1.74,0.58-2.7C51.41,58,50.44,56.96,48.91,56.98z
	 M20.17,50.57c0.05,1.52,0.5,2.41,1.53,2.96c1.25,0.67,2.92,0.35,3.78-0.83c0.87-1.2,1.76-2.38,2.64-3.58
	c0.59-0.8,0.95-1.65,0.74-2.7c-0.23-1.1-1.09-2.12-2.53-2.35c-1.1-0.18-2.04,0.33-2.71,1.2c-0.81,1.03-1.57,2.1-2.34,3.17
	C20.74,49.2,20.11,49.92,20.17,50.57z"/>
</svg>
